<svg width="263" height="292" viewBox="0 0 263 292" fill="none" xmlns="http://www.w3.org/2000/svg">
<path d="M226.37 220.778C226.37 214.538 224.11 212.678 221.09 211.678C218.07 210.678 209.26 208.738 209.26 208.738L207.21 210.678C211.73 211.198 215.63 212.228 215.63 212.228C215.63 212.228 220.55 214.378 220.55 221.508C220.55 228.638 219.91 259.708 219.91 259.708H226.37C226.37 259.708 226.37 227.028 226.37 220.778Z" fill="#514339"/>
<path d="M226.37 261.3H219.91C219.48 261.3 219.07 261.13 218.78 260.82C218.48 260.51 218.32 260.1 218.33 259.68C218.34 259.37 218.97 228.55 218.97 221.51C218.97 215.99 215.68 214.03 215.1 213.73C214.37 213.55 210.92 212.7 207.05 212.26C206.44 212.19 205.92 211.77 205.72 211.18C205.53 210.59 205.69 209.95 206.14 209.52L208.19 207.58C208.57 207.22 209.11 207.07 209.62 207.18C209.98 207.26 218.54 209.15 221.6 210.17C226.06 211.65 227.97 214.82 227.97 220.78V259.71C227.96 260.59 227.24 261.3 226.37 261.3ZM221.53 258.12H224.78V220.78C224.78 215.05 222.8 213.92 220.59 213.19C220.13 213.04 219.54 212.86 218.85 212.68C220.42 214.29 222.13 217.07 222.13 221.51C222.13 227.64 221.66 251.64 221.53 258.12Z" fill="#514339"/>
<path d="M214.29 203.359C222.14 193.789 227.08 179.979 227.08 164.629C227.08 144.889 218.93 127.699 206.89 118.799V118.789C193.25 107.749 167.18 94.0586 133.2 94.0586C95.0201 94.0586 75.7901 101.699 65.7501 108.219C65.7501 108.219 65.7401 108.219 65.7401 108.229C47.5501 118.879 34.8301 143.229 34.8301 171.579C34.8301 204.139 51.6101 231.429 74.1801 238.729C74.7401 238.909 75.3001 239.079 75.8701 239.239C122.13 252.969 180.96 238.659 211.42 206.529C212.4 205.539 213.35 204.489 214.26 203.389C214.27 203.379 214.28 203.369 214.29 203.359Z" fill="white"/>
<path d="M113.33 246.029C113.32 246.029 113.32 246.029 113.33 246.029C99.9603 246.029 87.2103 244.259 75.4303 240.759C74.8703 240.609 74.2903 240.429 73.7103 240.239C49.8903 232.529 33.2603 204.289 33.2603 171.569C33.2603 143.569 45.6703 118.189 64.8803 106.899L64.9403 106.859C79.6703 97.3087 102.64 92.4688 133.22 92.4688C173.75 92.4688 200.63 111.669 207.9 117.559L207.96 117.609C220.74 127.129 228.68 145.139 228.68 164.629C228.68 179.709 223.89 194.199 215.53 204.369L215.47 204.439C214.56 205.549 213.57 206.639 212.57 207.649C190.12 231.309 152.09 246.029 113.33 246.029ZM66.6803 109.509L66.5503 109.589C48.2503 120.299 36.4303 144.629 36.4303 171.569C36.4303 202.929 52.1603 229.919 74.6903 237.209C75.2303 237.379 75.7703 237.549 76.3103 237.699C87.8203 241.119 100.27 242.849 113.33 242.849C151.25 242.849 188.41 228.519 210.28 205.439C211.24 204.469 212.16 203.459 213.04 202.379L213.09 202.319C220.97 192.699 225.49 178.959 225.49 164.619C225.49 146.059 218 128.989 205.95 120.069L205.38 119.609C197.63 113.459 171.8 95.6388 133.21 95.6388C103.27 95.6488 80.8803 100.309 66.6803 109.509Z" fill="#514339"/>
<path d="M54.0401 123.228C54.0401 123.228 54.0501 123.228 54.0401 123.228C65.8801 116.698 81.5901 100.948 128.7 103.758C182 106.938 206.89 118.798 206.89 118.798V118.788C193.25 107.748 167.66 95.498 133.2 94.058C95.0501 92.458 75.7901 101.698 65.7501 108.218C65.7501 108.218 65.7401 108.218 65.7401 108.228C58.2501 112.618 51.6901 119.338 46.5601 127.688C48.9501 126.018 51.4501 124.518 54.0401 123.228Z" fill="#514339"/>
<path d="M220.54 221.51L215.62 212.23C215.62 212.23 211.73 211.2 207.22 210.68C188.22 228.32 160.35 239.86 131.51 243.33L145.43 253.76C145.43 253.76 156.9 247.52 172.48 244.07C189.79 247.36 197.6 255.72 197.6 255.72L219.9 259.7L220.54 221.51Z" fill="#514339"/>
<path d="M219.91 261.298C219.82 261.298 219.72 261.288 219.63 261.278L197.33 257.298C196.99 257.238 196.68 257.068 196.45 256.818C196.38 256.738 188.81 248.888 172.51 245.708C157.51 249.078 146.31 255.108 146.2 255.168C145.65 255.468 144.99 255.418 144.49 255.048L130.57 244.618C130.05 244.228 129.82 243.568 129.99 242.938C130.16 242.308 130.69 241.848 131.33 241.768C160.6 238.248 187.87 226.488 206.15 209.528C206.49 209.208 206.95 209.058 207.41 209.118C211.98 209.638 215.87 210.668 216.04 210.708C216.47 210.818 216.83 211.108 217.04 211.498L221.96 220.778C222.09 221.018 222.15 221.278 222.14 221.548L221.5 259.748C221.49 260.218 221.28 260.648 220.92 260.948C220.63 261.168 220.27 261.298 219.91 261.298ZM198.38 254.258L218.35 257.818L218.95 221.888L214.56 213.588C213.38 213.308 210.74 212.718 207.77 212.338C189.84 228.728 163.75 240.288 135.59 244.388L145.6 251.888C148.64 250.348 158.85 245.458 172.15 242.518C172.36 242.468 172.58 242.468 172.79 242.508C188.46 245.498 196.55 252.508 198.38 254.258Z" fill="#514339"/>
<path d="M74.1903 238.727C74.7503 238.907 75.3103 239.077 75.8803 239.237C122.14 252.967 180.97 238.657 211.43 206.527C212.41 205.537 213.36 204.487 214.27 203.387C214.28 203.377 214.29 203.367 214.29 203.357C218.86 197.787 222.44 190.777 224.64 182.867L135.05 193.727L36.2803 187.807C40.7803 212.907 55.4903 232.667 74.1903 238.727Z" fill="#514339"/>
<path d="M151.41 163.586C158.33 162.996 165.29 162.806 172.23 162.646C181.44 162.426 190.65 162.466 199.86 162.686C202.86 162.756 205.87 162.866 208.87 163.046C199.62 164.836 190.24 166.056 180.89 167.216C175.12 167.936 169.33 168.546 163.54 169.076C160.95 169.316 158.35 169.516 155.75 169.696C154.87 169.756 154 169.806 153.12 169.856C152.89 169.866 152.08 170.046 151.88 169.916C151.74 169.826 151.79 169.476 151.77 169.276C151.72 168.556 151.68 167.846 151.63 167.126C151.56 165.946 151.48 164.766 151.41 163.586Z" fill="#514339"/>
<path d="M146.21 133.867C153.81 134.217 161.39 134.827 168.96 135.547C177.64 136.377 186.31 137.317 194.94 138.507C198.43 138.987 201.93 139.477 205.4 140.097C195.75 140.817 186.04 140.847 176.37 140.897C170.84 140.927 165.31 140.857 159.78 140.737C157.15 140.677 154.52 140.607 151.89 140.497C150.84 140.457 149.79 140.407 148.74 140.357C148.22 140.337 147.69 140.317 147.17 140.277C146.95 140.267 146.04 140.347 145.91 140.207C145.81 140.097 145.93 139.447 145.94 139.287C145.98 138.557 146.02 137.827 146.05 137.097C146.1 136.027 146.16 134.947 146.21 133.867Z" fill="#514339"/>
<path d="M128.28 110.44C136.6 110.4 144.86 110.95 153.12 111.94C162.46 113.06 171.74 114.71 180.9 116.89C184.77 117.81 188.64 118.83 192.43 120.03C188 119.89 183.56 119.55 179.14 119.27C173.42 118.9 167.69 118.52 161.97 118.15C150.84 117.42 139.71 117.07 128.57 116.8C128.13 116.79 128.24 116.72 128.25 116.29C128.26 115.55 128.26 114.81 128.27 114.06C128.25 112.85 128.27 111.65 128.28 110.44Z" fill="#514339"/>
<path d="M137.29 213.378C145.19 212.098 153.09 210.818 161 209.638C171.77 208.028 182.54 206.408 193.34 204.958C197.96 204.338 202.58 203.738 207.21 203.168C198.1 205.398 188.95 207.478 179.8 209.528C169.32 211.878 158.81 214.158 148.29 216.308C144.93 216.998 141.57 217.678 138.21 218.368C137.9 216.708 137.6 215.048 137.29 213.378Z" fill="white"/>
<path d="M104.12 243.797C132.42 238.727 162.58 217.147 162.58 166.657C162.58 120.947 129.16 98.3572 109.57 96.4472C113.19 96.0572 113.43 96.1472 113.43 96.1472C134.71 94.5172 169.93 116.367 169.93 166.657C169.93 217.157 141.4 240.017 111.68 244.447L104.12 243.797Z" fill="white"/>
<path d="M109.84 243.797C138.14 238.727 167.06 217.147 167.06 166.657C167.06 116.367 127.97 94.0668 109.84 96.4968L116.58 95.6768C137.86 94.0468 175.64 116.367 175.64 166.657C175.64 217.157 147.11 240.017 117.39 244.447L109.84 243.797Z" fill="#514339"/>
<path d="M120.54 244.156C144.42 239.596 175.03 214.786 175.03 164.946C175.03 120.746 142.7 98.8465 125.93 94.9165C123.87 94.4365 125.9 94.4364 125.9 94.4364C141.58 93.6164 182.68 115.296 182.68 164.936C182.68 214.786 152.45 238.716 127.91 243.526L120.54 244.156Z" fill="white"/>
<path d="M124.99 244.157C148.87 239.597 179.48 214.787 179.48 164.947C179.48 115.307 138.69 93.7972 124.99 94.2772L132.37 94.0572C148.05 93.2372 187.14 115.297 187.14 164.937C187.14 214.787 156.91 238.717 132.37 243.527L124.99 244.157Z" fill="#514339"/>
<path d="M208.89 164.978C208.89 123.608 176.39 105.138 167.95 101.648C167.95 101.648 169.98 102.118 173.53 103.418C180.68 105.728 215.67 122.228 215.67 163.598C215.67 205.148 180.46 228.188 174 228.648C178.37 226.338 208.89 206.518 208.89 164.978Z" fill="white"/>
<path d="M168.4 229.619C187.94 225.819 212.99 205.139 212.99 163.599C212.99 122.229 178.4 101.649 167.55 101.649L173.46 101.199C184.6 102.849 219.26 122.229 219.26 163.599C219.26 205.149 194.53 225.099 174.44 229.099L168.4 229.619Z" fill="#514339"/>
<path d="M130.43 269.307C128.02 269.107 125.86 267.467 125.12 265.017C124.15 261.807 125.96 258.407 129.17 257.437L202.76 235.117C205.97 234.147 209.37 235.957 210.34 239.167C211.31 242.377 209.5 245.777 206.29 246.747L132.7 269.067C131.94 269.297 131.17 269.367 130.43 269.307Z" fill="white"/>
<path d="M130.93 270.918C130.72 270.918 130.51 270.908 130.3 270.888C127.15 270.628 124.52 268.498 123.6 265.468C122.37 261.428 124.67 257.138 128.71 255.908L202.3 233.588C203.02 233.368 203.77 233.258 204.53 233.258C207.93 233.258 210.88 235.448 211.86 238.698C213.09 242.738 210.79 247.028 206.75 248.258L133.16 270.578C132.43 270.808 131.68 270.918 130.93 270.918ZM204.52 236.438C204.08 236.438 203.64 236.508 203.22 236.628L129.63 258.948C127.26 259.668 125.92 262.178 126.64 264.548C127.18 266.318 128.72 267.568 130.56 267.718C131.12 267.768 131.69 267.708 132.23 267.538L205.82 245.218C208.19 244.498 209.53 241.988 208.81 239.618C208.25 237.748 206.48 236.438 204.52 236.438Z" fill="#514339"/>
<path d="M68.6101 273.897L49.1201 270.187L49.1901 221.137C60.4001 225.397 67.7101 241.747 90.8901 241.747C98.5101 241.747 106.14 244.157 134.46 232.177C141.24 232.387 148.44 234.297 148.44 234.297L154.16 245.097V289.777L127.48 284.907C127.48 284.907 116.15 273.367 97.6001 270.507C76.2901 267.227 68.6101 273.897 68.6101 273.897Z" fill="white"/>
<path d="M154.15 291.368C154.06 291.368 153.96 291.358 153.86 291.338L127.18 286.468C126.86 286.408 126.56 286.248 126.33 286.018C126.22 285.908 115.11 274.818 97.34 272.078C93.51 271.488 89.87 271.188 86.51 271.188C74.48 271.188 69.69 275.058 69.64 275.098C69.27 275.418 68.78 275.548 68.3 275.458L48.81 271.748C48.06 271.608 47.52 270.948 47.52 270.188L47.59 221.138C47.59 220.618 47.85 220.128 48.28 219.828C48.71 219.528 49.26 219.468 49.75 219.648C53.82 221.198 57.35 224.188 61.09 227.358C68.16 233.358 76.18 240.148 90.89 240.148C91.96 240.148 93.01 240.198 94.12 240.238C95.32 240.288 96.56 240.338 97.93 240.338C104.41 240.338 113.74 239.188 133.84 230.698C134.05 230.608 134.28 230.568 134.51 230.578C141.39 230.798 148.54 232.668 148.84 232.748C149.27 232.858 149.63 233.148 149.84 233.538L155.56 244.338C155.68 244.568 155.74 244.818 155.74 245.078V289.758C155.74 290.228 155.53 290.678 155.17 290.978C154.88 291.238 154.52 291.368 154.15 291.368ZM128.24 283.428L152.57 287.868V245.488L147.37 235.668C145.5 235.218 140 233.988 134.76 233.778C114.37 242.368 104.7 243.538 97.94 243.538C96.5 243.538 95.23 243.478 94 243.428C92.92 243.378 91.91 243.338 90.9 243.338C75.03 243.338 66.17 235.828 59.05 229.788C56.13 227.308 53.52 225.098 50.78 223.618L50.72 268.868L68.24 272.198C70.04 270.988 75.6 267.998 86.53 267.998C90.05 267.998 93.85 268.308 97.84 268.928C115.05 271.588 126.09 281.378 128.24 283.428Z" fill="#514339"/>
<path d="M163.47 242.981L157.33 232.391L145.05 229.641L134.46 232.181C141.24 232.391 148.44 234.301 148.44 234.301L154.16 245.101L154.8 289.781L163.91 286.391L163.47 242.981Z" fill="#514339"/>
<path d="M154.79 291.369C154.47 291.369 154.16 291.279 153.89 291.089C153.46 290.799 153.21 290.319 153.2 289.799L152.57 245.499L147.36 235.669C145.45 235.209 139.75 233.939 134.41 233.769C133.62 233.749 132.96 233.139 132.88 232.339C132.8 231.549 133.32 230.819 134.09 230.629L144.68 228.089C144.92 228.029 145.16 228.029 145.4 228.079L157.68 230.829C158.11 230.929 158.48 231.199 158.71 231.579L164.85 242.169C164.99 242.409 165.06 242.679 165.06 242.949L165.48 286.359C165.49 287.029 165.07 287.629 164.45 287.859L155.35 291.249C155.16 291.329 154.98 291.369 154.79 291.369ZM143.58 231.629C146.57 232.169 148.68 232.729 148.84 232.769C149.27 232.879 149.63 233.169 149.84 233.559L155.56 244.359C155.68 244.579 155.74 244.829 155.74 245.079L156.34 287.509L162.29 285.299L161.88 243.429L156.3 233.809L145.06 231.289L143.58 231.629Z" fill="#514339"/>
<path d="M56.8603 224.117L53.6803 258.077L50.5103 224.117H56.8603Z" fill="#514339"/>
<path d="M63.2201 224.777L60.0501 259.137L56.8701 224.777H63.2201Z" fill="#514339"/>
<path d="M69.5902 225.445L66.4102 260.185L63.2402 225.445H69.5902Z" fill="#514339"/>
<path d="M75.9601 226.105L72.7801 261.245L69.6001 226.105H75.9601Z" fill="#514339"/>
<path d="M82.3202 226.766L79.1502 262.296L75.9702 226.766H82.3202Z" fill="#514339"/>
<path d="M88.6903 227.438L85.5103 263.357L82.3403 227.438H88.6903Z" fill="#514339"/>
<path d="M95.0602 228.098L91.8802 264.418L88.7002 228.098H95.0602Z" fill="#514339"/>
<path d="M101.42 228.758L98.2503 265.468L95.0703 228.758H101.42Z" fill="#514339"/>
<path d="M107.79 229.426L104.61 266.526L101.44 229.426H107.79Z" fill="#514339"/>
<path d="M114.16 230.086L110.98 267.586L107.8 230.086H114.16Z" fill="#514339"/>
<path d="M120.52 230.746L117.35 268.636L114.17 230.746H120.52Z" fill="#514339"/>
<path d="M126.89 231.418L123.71 269.698L120.54 231.418H126.89Z" fill="#514339"/>
<path d="M133.25 232.078L130.08 270.748L126.9 232.078H133.25Z" fill="#514339"/>
<path d="M139.62 232.738L136.45 271.808L133.27 232.738H139.62Z" fill="#514339"/>
<path d="M145.99 233.406L142.81 272.866L139.64 233.406H145.99Z" fill="#514339"/>
<path d="M152.35 234.066L149.18 273.916L146 234.066H152.35Z" fill="#514339"/>
<path d="M86.2901 240.648C114.711 240.648 137.75 209.72 137.75 171.568C137.75 133.416 114.711 102.488 86.2901 102.488C57.8695 102.488 34.8301 133.416 34.8301 171.568C34.8301 209.72 57.8695 240.648 86.2901 240.648Z" fill="white"/>
<path d="M86.2902 242.238C57.0402 242.238 33.2402 210.538 33.2402 171.568C33.2402 132.598 57.0402 100.898 86.2902 100.898C115.54 100.898 139.34 132.598 139.34 171.568C139.34 210.538 115.54 242.238 86.2902 242.238ZM86.2902 104.078C58.7902 104.078 36.4202 134.358 36.4202 171.568C36.4202 208.788 58.7902 239.058 86.2902 239.058C113.79 239.058 136.16 208.778 136.16 171.568C136.16 134.358 113.79 104.078 86.2902 104.078Z" fill="#514339"/>
<path d="M85.9702 236.05C60.3302 236.05 39.4702 207.13 39.4702 171.57C39.4702 136.01 60.3302 107.09 85.9702 107.09C111.61 107.09 132.47 136.01 132.47 171.57C132.47 207.13 111.61 236.05 85.9702 236.05ZM85.9702 110.27C62.0802 110.27 42.6502 137.77 42.6502 171.57C42.6502 205.37 62.0802 232.87 85.9702 232.87C109.86 232.87 129.29 205.37 129.29 171.57C129.29 137.77 109.86 110.27 85.9702 110.27Z" fill="#514339"/>
<path d="M92.3103 229.54C69.4503 229.54 50.9103 203.58 50.9103 171.57C50.9103 139.55 69.4503 113.6 92.3103 113.6C99.8503 113.6 106.93 116.43 113.02 121.36C105.5 113.4 96.1303 108.68 85.9803 108.68C61.1803 108.68 41.0703 136.84 41.0703 171.57C41.0703 206.3 61.1803 234.46 85.9803 234.46C96.1303 234.46 105.5 229.74 113.02 221.78C106.92 226.72 99.8503 229.54 92.3103 229.54Z" fill="#514339"/>
<path d="M167.66 234.938C174.34 232.358 180.9 229.498 187.18 226.048C194.39 222.088 201.18 217.478 207.49 212.198C210.54 209.648 213.44 206.928 215.94 203.828C216.63 204.478 217.31 205.138 218 205.788C218.29 206.068 218.86 206.428 219.05 206.778C219.13 206.938 219.13 206.808 219.12 206.948C219.1 207.218 218.5 207.638 218.31 207.828C216.75 209.338 215.19 210.768 213.49 212.128C211.54 213.688 209.51 215.178 207.44 216.588C199.17 222.228 190.28 226.738 180.99 230.438C176.63 232.168 172.16 233.588 167.66 234.938Z" fill="white"/>
<path d="M221.16 257.797C220.69 251.267 220.25 244.727 219.84 238.187C219.56 233.697 219.28 229.197 219 224.707C218.92 223.367 218.88 222.017 218.74 220.687C218.66 219.987 218.47 219.287 218.04 218.717C217.44 217.927 216.47 217.577 215.57 217.237C213.61 216.497 211.6 215.887 209.64 215.147C209.5 215.097 209.03 214.987 208.98 214.847C208.94 214.737 209.11 214.347 209.14 214.237C209.26 213.787 209.37 213.337 209.49 212.887C210.89 213.257 212.29 213.637 213.69 214.037C215.48 214.537 217.52 214.967 219.04 216.107C220.65 217.317 221.13 219.207 221.16 221.137C221.2 223.357 221.16 225.577 221.16 227.797C221.16 236.007 221.16 244.217 221.16 252.417C221.16 254.217 221.16 256.007 221.16 257.797Z" fill="white"/>
<path d="M90.6602 98.266C108.42 94.056 151.61 111.906 151.61 166.746C151.61 221.166 118.79 247.636 81.1002 240.646L81.1502 240.306C82.8402 240.536 84.5602 240.646 86.2902 240.646C114.71 240.646 137.75 209.716 137.75 171.566C137.75 133.416 114.71 102.486 86.2902 102.486C78.9802 102.486 72.0302 104.526 65.7402 108.216C65.7402 108.216 75.0302 101.976 90.6602 98.266Z" fill="white"/>
<path d="M92.8201 243.338C88.8901 243.338 84.8501 242.958 80.8101 242.208L79.3301 241.938L79.7801 238.528L81.3601 238.738C82.9901 238.958 84.6501 239.068 86.2901 239.068C113.79 239.068 136.16 208.788 136.16 171.578C136.16 134.358 113.79 104.088 86.2901 104.088C79.4301 104.088 72.7901 105.938 66.5401 109.598L64.8501 106.908C65.2401 106.648 74.5601 100.468 90.2901 96.7277C92.0601 96.3077 94.0501 96.0977 96.1901 96.0977C105.6 96.0977 120.06 100.388 132.45 112.418C141.92 121.608 153.2 138.498 153.2 166.758C153.2 190.208 147.12 209.848 135.63 223.538C124.9 236.308 109.7 243.338 92.8201 243.338ZM86.8601 100.908C115.85 101.318 139.34 132.858 139.34 171.578C139.34 204.008 122.86 231.408 100.47 239.688C130.83 235.738 150.03 207.998 150.03 166.758C150.03 139.608 139.27 123.468 130.25 114.698C118.54 103.328 104.98 99.2776 96.2001 99.2776C94.3101 99.2776 92.5701 99.4576 91.0401 99.8276C89.5801 100.158 88.1901 100.528 86.8601 100.908Z" fill="#514339"/>
<path d="M135.3 269.648C138.851 269.648 141.73 266.447 141.73 262.498C141.73 258.549 138.851 255.348 135.3 255.348C131.749 255.348 128.87 258.549 128.87 262.498C128.87 266.447 131.749 269.648 135.3 269.648Z" fill="#514339"/>
<path d="M63.22 245.27C59.94 245.27 57.27 248.229 57.27 251.859C57.27 255.489 59.94 258.45 63.22 258.45C66.5 258.45 69.17 255.489 69.17 251.859C69.17 248.229 66.5 245.27 63.22 245.27Z" fill="#514339"/>
<path d="M133.09 94.9672H124.7V87.2172C124.7 85.6372 125.98 84.3672 127.55 84.3672H130.24C131.82 84.3672 133.09 85.6472 133.09 87.2172V94.9672V94.9672Z" fill="white"/>
<path d="M134.13 96.0081H123.66V86.1081C123.66 84.5781 124.91 83.3281 126.44 83.3281H131.35C132.88 83.3281 134.13 84.5781 134.13 86.1081V96.0081ZM125.74 93.9281H132.05V86.1081C132.05 85.7181 131.73 85.4081 131.35 85.4081H126.44C126.05 85.4081 125.74 85.7281 125.74 86.1081V93.9281V93.9281Z" fill="#514339"/>
<path d="M128.05 94.9672H124.69V86.1072C124.69 85.1472 125.47 84.3672 126.43 84.3672H129.28C129.28 84.3672 128.04 85.9572 128.04 87.0672C128.04 88.1772 128.05 94.9672 128.05 94.9672Z" fill="#514339"/>
<path d="M83.54 98.6484C86.87 98.6484 90.12 98.7684 93.42 99.2784C97.42 99.8984 101.23 101.118 104.96 102.688C111.8 105.568 117.87 110.468 122.92 115.828C125.62 118.688 128.02 121.768 130.35 124.928C125.66 119.278 120.6 114.108 114.53 109.908C108.7 105.868 101.86 103.028 94.82 102.068C91.08 101.558 87.39 101.618 83.63 101.828C83.6 100.758 83.57 99.7084 83.54 98.6484Z" fill="#514339"/>
<path d="M87.8403 97.7383C91.1003 97.7483 94.3103 97.8183 97.5403 98.3483C101.58 99.0083 105.45 100.208 109.19 101.868C115.88 104.838 121.7 109.718 126.61 115.068C129.2 117.898 131.53 120.928 133.8 124.018C129.21 118.468 124.32 113.288 118.44 109.098C112.69 104.998 106.08 102.248 99.1003 101.158C95.3903 100.578 91.6603 100.708 87.9303 100.918C87.9003 99.8583 87.8703 98.7983 87.8403 97.7383Z" fill="#514339"/>
<path d="M96.9204 240.509C98.5804 239.909 100.29 239.399 101.89 238.679C104.06 237.709 106.17 236.719 108.27 235.599C112.8 233.189 117.11 230.049 120.81 226.489C126.77 220.759 131.8 214.119 135.32 206.599C137.36 202.229 138.89 197.769 140.14 193.109C139.23 197.239 138.21 201.339 136.6 205.259C134.66 209.989 132.36 214.509 129.5 218.749C124.7 225.849 118.47 231.939 111.36 236.709C107.2 239.499 102.68 241.549 98.0704 243.459C97.6904 242.489 97.3104 241.499 96.9204 240.509Z" fill="#514339"/>
<path d="M101.06 240.509C102.64 239.939 104.27 239.429 105.81 238.749C107.99 237.779 110.1 236.759 112.2 235.639C115.35 233.959 118.37 231.859 121.11 229.569C123.02 227.969 124.96 226.349 126.65 224.509C128.32 222.709 129.93 220.889 131.47 218.979C134.66 215.039 137.25 210.609 139.48 206.069C141.53 201.909 142.99 197.559 144.27 193.109C143.33 197.049 142.28 200.959 140.76 204.719C138.87 209.379 136.54 213.779 133.8 217.989C128.83 225.599 122.31 231.959 114.82 237.059C110.9 239.729 106.57 241.659 102.21 243.469C101.83 242.489 101.45 241.499 101.06 240.509Z" fill="#514339"/>
<path d="M163.16 253.688L186.76 248.598L164.03 256.738L163.16 253.688Z" fill="#514339"/>
<path d="M68.4105 122.91H65.2305V220.24H68.4105V122.91Z" fill="#514339"/>
<path d="M84.3206 112.52H81.1406V230.62H84.3206V112.52Z" fill="#514339"/>
<path d="M100.23 112.52H97.0503V230.62H100.23V112.52Z" fill="#514339"/>
<path d="M116.14 122.91H112.96V220.24H116.14V122.91Z" fill="#514339"/>
<path d="M128.67 94.7489L129.29 90.3789L129.92 94.7489H128.67Z" fill="#514339"/>
<path d="M131.41 84.3672L130.78 91.7872L130.16 84.3672H131.41Z" fill="#514339"/>
<path d="M174.18 248.789C177.92 247.329 181.78 246.139 185.62 244.969C190.61 243.459 195.66 242.109 200.74 240.969C202.49 240.569 204.24 240.189 206.01 239.879C202.27 241.349 198.41 242.529 194.57 243.699C189.58 245.209 184.53 246.549 179.45 247.699C177.7 248.099 175.95 248.479 174.18 248.789Z" fill="#514339"/>
<path d="M196.81 245.509L209.13 240.539L209.85 242.969L196.81 245.509Z" fill="#514339"/>
<path d="M54.6001 153.88C54.7701 156 55.2301 158.05 55.8001 160.09C56.7501 163.47 57.9501 166.79 59.2601 170.05C58.9001 170.08 58.5301 170.12 58.1701 170.15C58.4501 165.08 59.3201 160.06 59.9501 155.03C60.3801 151.55 60.8101 148.06 61.1001 144.57C61.3301 141.74 61.5201 138.92 61.7501 136.09C61.9301 139.81 61.9801 143.51 61.8601 147.22C61.6801 153.13 61.3301 159.1 60.4201 164.95C60.0301 167.47 59.4101 169.91 58.7101 172.36C57.0801 166.29 54.6701 160.23 54.6001 153.88Z" fill="#514339"/>
<path d="M57.72 157.32C56.96 155.7 56.77 153.76 56.77 152C56.77 150.24 56.96 148.3 57.72 146.68C58.48 148.3 58.68 150.24 58.67 152C58.67 153.76 58.48 155.7 57.72 157.32Z" fill="#514339"/>
<path d="M63.49 157.316C64.03 160.446 64.13 163.676 64.12 166.846C64.12 170.016 64.03 173.246 63.49 176.376C62.95 173.246 62.85 170.016 62.86 166.846C62.86 163.676 62.95 160.436 63.49 157.316Z" fill="#514339"/>
<path d="M54.6004 168.359C55.1404 170.979 55.2304 173.709 55.2304 176.369C55.2304 179.029 55.1304 181.769 54.6004 184.379C54.0604 181.769 53.9704 179.029 53.9704 176.369C53.9604 173.709 54.0604 170.969 54.6004 168.359Z" fill="#514339"/>
<path d="M56.3501 178.199C56.4601 180.979 56.5601 183.759 56.6701 186.539C56.8401 190.969 57.0101 195.399 57.1801 199.829C57.2201 200.839 57.2601 201.849 57.3001 202.869C56.6601 202.869 56.0301 202.869 55.3901 202.869C55.5001 200.089 55.6001 197.309 55.7101 194.529C55.8801 190.099 56.0501 185.669 56.2201 181.239C56.2701 180.219 56.3101 179.209 56.3501 178.199Z" fill="#514339"/>
<path d="M60.6903 203.537C60.2903 200.187 60.1903 196.797 60.1003 193.427C59.9803 188.987 60.0503 184.537 60.3103 180.107C60.4003 178.577 60.5103 177.047 60.6903 175.527C61.0903 178.877 61.1903 182.267 61.2803 185.637C61.4003 190.077 61.3303 194.527 61.0603 198.957C60.9703 200.487 60.8703 202.017 60.6903 203.537Z" fill="#514339"/>
<path d="M73.8105 176.369C73.4605 171.029 74.0005 165.629 74.7805 160.349C74.9705 159.029 75.1805 157.699 75.4105 156.379C75.5205 155.759 75.6305 155.139 75.7505 154.529C75.8805 153.859 75.9305 153.079 76.1605 152.429C76.2805 152.089 76.5705 151.849 76.9505 151.969C77.4805 152.139 77.4605 152.949 77.5505 153.389C77.7905 154.679 78.0105 155.969 78.2005 157.269C78.6305 160.179 79.0405 163.149 78.8905 166.099C78.3205 161.589 77.1305 157.119 76.1605 152.679C76.5605 152.679 76.9605 152.679 77.3605 152.669C76.2505 158.519 75.3005 164.409 74.4905 170.299C74.2205 172.319 74.0105 174.349 73.8105 176.369C73.9105 175.369 73.7505 175.369 73.8105 176.369Z" fill="#514339"/>
<path d="M77.0403 165.148C77.7703 166.428 77.9903 168.038 77.9903 169.488C77.9903 170.928 77.7803 172.568 77.0403 173.828C76.3003 172.548 76.0903 170.938 76.0903 169.488C76.0903 168.048 76.3003 166.418 77.0403 165.148Z" fill="#514339"/>
<path d="M78.9002 116.34C78.6202 121.85 78.3402 127.35 78.0602 132.86C78.0202 133.64 77.9802 134.41 77.9402 135.19C77.6602 129.68 77.3802 124.18 77.1102 118.67C77.0702 117.89 77.0302 117.12 76.9902 116.34C77.6302 116.34 78.2602 116.34 78.9002 116.34Z" fill="#514339"/>
<path d="M74.8001 126.719C75.3401 129.719 75.4301 132.829 75.4301 135.879C75.4301 138.919 75.3401 142.039 74.8001 145.039C74.2601 142.039 74.1701 138.929 74.1701 135.879C74.1601 132.839 74.2601 129.719 74.8001 126.719Z" fill="#514339"/>
<path d="M71.2701 120.68C70.9501 123.29 70.6301 125.9 70.3201 128.51C70.0001 125.9 69.6801 123.29 69.3701 120.68C70.0001 120.68 70.6401 120.68 71.2701 120.68Z" fill="#514339"/>
<path d="M71.9104 138.566C72.4504 141.636 72.5504 144.826 72.5404 147.936C72.5404 151.046 72.4504 154.236 71.9104 157.306C71.3704 154.236 71.2704 151.046 71.2804 147.936C71.2804 144.826 71.3704 141.646 71.9104 138.566Z" fill="#514339"/>
<path d="M71.9104 174.566C72.4504 177.956 72.5404 181.456 72.5404 184.886C72.5404 188.316 72.4504 191.816 71.9104 195.206C71.3704 191.816 71.2704 188.316 71.2804 184.886C71.2704 181.456 71.3704 177.966 71.9104 174.566Z" fill="#514339"/>
<path d="M87.8802 121.95C88.6502 129.13 89.5302 136.35 91.5902 143.3C91.0302 143.32 90.4802 143.34 89.9202 143.35C91.6402 135.35 92.5502 127.14 93.3002 118.99C93.4102 117.75 93.5302 116.51 93.6402 115.27C94.2102 122.89 93.8202 130.53 92.6602 138.08C92.5102 139.02 92.3602 139.97 92.1902 140.91C92.0202 141.83 91.9102 142.86 91.6002 143.75C91.3902 144.35 90.6802 144.68 90.1602 144.18C89.8802 143.91 89.8402 143.46 89.7502 143.11C89.6102 142.59 89.4902 142.07 89.3702 141.54C88.5802 138.1 88.0902 134.57 87.8502 131.05C87.6502 128.01 87.6902 125 87.8802 121.95C87.8302 122.87 87.9802 122.86 87.8802 121.95Z" fill="#514339"/>
<path d="M94.4703 140.098C94.8703 143.788 94.9703 147.498 95.0603 151.208C95.1803 156.088 95.1103 160.988 94.8503 165.858C94.7603 167.528 94.6503 169.198 94.4703 170.868C94.0703 167.178 93.9703 163.468 93.8803 159.758C93.7603 154.878 93.8303 149.978 94.1003 145.108C94.1903 143.438 94.2903 141.768 94.4703 140.098Z" fill="#514339"/>
<path d="M90.9403 155.488C91.4803 159.358 91.5703 163.318 91.5703 167.218C91.5703 171.118 91.4803 175.078 90.9403 178.948C90.3903 175.078 90.3003 171.118 90.3103 167.218C90.3103 163.308 90.4003 159.358 90.9403 155.488Z" fill="#514339"/>
<path d="M87.0301 141.59C87.5701 145.2 87.6601 148.9 87.6601 152.55C87.6601 156.2 87.5701 159.9 87.0301 163.51C86.4801 159.9 86.3901 156.2 86.4001 152.55C86.4001 148.91 86.4901 145.2 87.0301 141.59Z" fill="#514339"/>
<path d="M84.5703 230.748C84.8503 226.658 85.1303 222.578 85.4003 218.488C85.4403 217.908 85.4803 217.338 85.5203 216.758C85.8003 220.848 86.0803 224.928 86.3503 229.018C86.3903 229.598 86.4303 230.168 86.4703 230.748C85.8403 230.748 85.2003 230.748 84.5703 230.748Z" fill="#514339"/>
<path d="M90.7601 231.419C90.3601 228.299 90.2601 225.149 90.1701 222.009C90.0501 217.889 90.1201 213.739 90.3801 209.629C90.4701 208.209 90.5801 206.779 90.7601 205.359C91.1601 208.479 91.2601 211.629 91.3501 214.769C91.4701 218.889 91.4001 223.039 91.1301 227.149C91.0501 228.569 90.9401 229.999 90.7601 231.419Z" fill="#514339"/>
<path d="M95.42 209.156C95.14 212.656 94.86 216.156 94.59 219.656C94.55 220.156 94.51 220.646 94.47 221.146C94.19 217.646 93.91 214.146 93.64 210.646C93.6 210.146 93.56 209.656 93.52 209.156C94.15 209.156 94.79 209.156 95.42 209.156Z" fill="#514339"/>
<path d="M90.7601 125.768C90.0201 124.438 89.8101 122.788 89.8101 121.298C89.8101 119.818 90.0101 118.138 90.7601 116.828C91.5001 118.148 91.7101 119.808 91.7101 121.298C91.7201 122.778 91.5101 124.448 90.7601 125.768Z" fill="#514339"/>
<path d="M103.35 195.957C103.14 191.177 103.11 186.417 103.45 181.637C103.64 179.077 103.9 176.517 104.28 173.977C104.52 172.377 104.8 170.777 105.13 169.187C105.29 168.397 105.47 167.607 105.67 166.827C105.82 166.237 105.91 165.297 106.31 164.827C106.69 164.387 107.41 164.447 107.71 164.947C108.03 165.507 108.01 166.437 108.11 167.067C108.36 168.677 108.6 170.287 108.82 171.897C109.26 175.157 109.65 178.437 109.97 181.707C110.48 186.827 110.82 191.967 110.98 197.107C111.09 200.747 111.01 204.377 110.85 208.017C110.44 202.687 110.03 197.377 109.5 192.057C108.95 186.487 108.27 180.917 107.51 175.367C107.06 172.087 106.63 168.797 106.13 165.527C106.69 165.567 107.24 165.617 107.8 165.657C106.18 170.697 105.37 176.077 104.7 181.317C104.23 184.937 103.89 188.557 103.62 192.197C103.51 193.457 103.44 194.707 103.35 195.957Z" fill="#514339"/>
<path d="M106.36 184.898C107.12 187.638 107.25 190.608 107.25 193.438C107.25 196.258 107.12 199.238 106.36 201.978C105.6 199.248 105.47 196.268 105.47 193.438C105.47 190.608 105.6 187.628 106.36 184.898Z" fill="#514339"/>
<path d="M102.1 131.957C102.64 134.927 102.73 137.997 102.73 141.007C102.73 144.017 102.64 147.097 102.1 150.057C101.56 147.087 101.47 144.017 101.47 141.007C101.46 138.007 101.56 134.927 102.1 131.957Z" fill="#514339"/>
<path d="M105.1 159.429C105.07 157.959 105.04 156.499 105.01 155.029C104.93 151.529 104.86 148.029 104.78 144.529C104.69 140.269 104.6 136.019 104.5 131.759C104.42 128.079 104.34 124.399 104.26 120.719C104.23 119.509 104.21 118.289 104.18 117.079C104.17 116.699 104.16 116.319 104.16 115.949C104.16 115.829 104.08 115.469 104.15 115.359C104.16 115.349 104.15 115.299 104.15 115.289C104.79 115.289 105.42 115.289 106.06 115.289C106.03 116.759 106 118.219 105.97 119.689C105.89 123.189 105.82 126.689 105.74 130.189C105.65 134.449 105.56 138.699 105.46 142.959C105.38 146.639 105.3 150.319 105.22 153.999C105.18 155.789 105.14 157.579 105.1 159.369C105.1 159.379 105.1 159.409 105.1 159.429Z" fill="#514339"/>
<path d="M109.84 118.438C109.56 123.968 109.28 129.508 109 135.038C108.96 135.808 108.92 136.587 108.88 137.357C108.6 131.827 108.32 126.288 108.04 120.758C108 119.988 107.96 119.207 107.92 118.438C108.57 118.438 109.2 118.438 109.84 118.438Z" fill="#514339"/>
<path d="M110.84 150.699C111.38 154.009 111.48 157.429 111.47 160.779C111.47 164.129 111.38 167.549 110.84 170.859C110.3 167.549 110.2 164.129 110.21 160.779C110.21 157.429 110.3 154.019 110.84 150.699Z" fill="#514339"/>
<path d="M103.35 205.359C103.89 208.379 103.98 211.499 103.98 214.559C103.98 217.619 103.89 220.749 103.35 223.759C102.81 220.739 102.72 217.619 102.72 214.559C102.71 211.499 102.81 208.369 103.35 205.359Z" fill="#514339"/>
<path d="M106.01 227.168C106.29 223.058 106.57 218.958 106.84 214.848C106.88 214.258 106.92 213.668 106.96 213.078C107.24 217.188 107.52 221.288 107.79 225.398C107.83 225.988 107.87 226.578 107.91 227.168C107.28 227.168 106.65 227.168 106.01 227.168Z" fill="#514339"/>
<path d="M122.09 142.277C122.53 146.467 122.98 150.657 123.46 154.837C123.91 158.707 124.37 162.577 124.87 166.447C125.18 168.857 125.49 171.277 125.81 173.687C125.28 173.637 124.74 173.587 124.21 173.527C124.78 172.097 125.35 170.667 125.9 169.227C127.04 166.237 128.3 163.227 128.87 160.057C128.95 163.887 127.77 167.727 126.66 171.367C126.39 172.257 126.18 173.277 125.77 174.117C125.45 174.777 124.55 174.867 124.22 174.157C124.06 173.807 124.05 173.347 123.99 172.977C123.9 172.487 123.81 171.997 123.73 171.507C123.63 170.937 123.54 170.367 123.46 169.797C122.6 163.887 121.95 157.947 121.8 151.967C121.71 148.737 121.81 145.507 122.09 142.277Z" fill="#514339"/>
<path d="M119.77 129.418C119.66 132.088 119.56 134.758 119.45 137.428C119.28 141.688 119.11 145.948 118.94 150.208C118.9 151.198 118.86 152.178 118.82 153.168C118.71 150.498 118.61 147.828 118.5 145.158C118.33 140.898 118.16 136.638 117.99 132.378C117.95 131.388 117.91 130.408 117.87 129.418C118.5 129.418 119.14 129.418 119.77 129.418Z" fill="#514339"/>
<path d="M120.54 157.316C120.94 160.686 121.05 164.096 121.13 167.486C121.24 171.826 121.18 176.186 120.92 180.526C120.83 182.076 120.72 183.636 120.54 185.176C120.14 181.806 120.03 178.396 119.94 175.006C119.83 170.666 119.9 166.306 120.15 161.966C120.25 160.416 120.36 158.856 120.54 157.316Z" fill="#514339"/>
<path d="M123.71 179.848C124.24 181.968 124.34 184.228 124.34 186.398C124.34 188.568 124.24 190.838 123.71 192.948C123.18 190.828 123.07 188.568 123.07 186.398C123.08 184.228 123.18 181.958 123.71 179.848Z" fill="#514339"/>
<path d="M117.35 199.449C116.81 196.079 116.72 192.609 116.72 189.199C116.72 185.789 116.81 182.319 117.35 178.949C117.89 182.319 117.99 185.789 117.98 189.199C117.98 192.609 117.89 196.079 117.35 199.449Z" fill="#514339"/>
<path d="M119.59 211.717C119.87 208.367 120.14 205.017 120.42 201.667C120.46 201.177 120.5 200.697 120.54 200.207C120.82 203.557 121.09 206.907 121.37 210.257C121.41 210.747 121.45 211.227 121.49 211.717C120.86 211.717 120.22 211.717 119.59 211.717Z" fill="#514339"/>
<path d="M127.3 146.297C127.02 150.787 126.74 155.277 126.46 159.777C126.42 160.407 126.38 161.047 126.34 161.677C126.06 157.187 125.78 152.697 125.51 148.197C125.47 147.567 125.43 146.927 125.39 146.297C126.03 146.297 126.66 146.297 127.3 146.297Z" fill="#514339"/>
<path d="M182.61 183.097C186.64 183.027 190.68 182.967 194.71 182.897C195.28 182.887 195.85 182.877 196.41 182.867C192.42 183.487 188.44 184.107 184.45 184.727C183.89 184.817 183.33 184.897 182.77 184.987C182.71 184.367 182.66 183.727 182.61 183.097Z" fill="#514339"/>
<path d="M208.17 166.75C206 167.72 203.79 168.58 201.64 169.6C199.72 170.52 197.81 171.48 195.95 172.51C194.73 173.19 193.51 173.87 192.32 174.6C192.26 174.06 192.21 173.51 192.15 172.97C195.93 174.43 199.76 175.54 203.72 176.37C199.73 176.86 195.44 176.18 191.69 174.77C190.72 174.4 190.66 173.5 191.5 172.93C192.44 172.29 193.44 171.72 194.44 171.19C196.45 170.13 198.5 169.16 200.65 168.42C203.11 167.58 205.58 166.99 208.17 166.75C207.41 166.82 207.48 167.06 208.17 166.75Z" fill="#514339"/>
<path d="M199.99 172.619C201.71 171.259 204.81 171.189 206.6 172.459C204.88 173.829 201.77 173.879 199.99 172.619Z" fill="#514339"/>
<path d="M185.93 168.75C188.42 168.87 190.91 168.98 193.4 169.1C191.02 169.83 188.63 170.55 186.25 171.28C186.14 170.43 186.04 169.59 185.93 168.75Z" fill="#514339"/>
<path d="M194.98 157.318C196.64 156.798 198.46 156.688 200.19 156.688C201.92 156.688 203.74 156.798 205.4 157.318C203.74 157.838 201.92 157.957 200.19 157.957C198.46 157.947 196.64 157.838 194.98 157.318Z" fill="#514339"/>
<path d="M203.89 143.547C197.89 143.917 191.89 144.287 185.89 144.667C185.06 144.717 184.22 144.767 183.39 144.817C183.39 143.967 183.39 143.127 183.39 142.277C189.39 142.647 195.39 143.017 201.39 143.397C202.22 143.447 203.05 143.497 203.89 143.547Z" fill="#514339"/>
<path d="M184.53 145.777C187.22 146.257 189.92 146.727 192.61 147.207C189.9 147.577 187.19 147.947 184.48 148.317C184.49 147.467 184.51 146.617 184.53 145.777Z" fill="#514339"/>
<path d="M191.01 152.546C192.62 152.026 194.41 151.916 196.09 151.906C197.78 151.906 199.56 152.016 201.17 152.546C199.56 153.066 197.77 153.186 196.09 153.186C194.41 153.186 192.63 153.066 191.01 152.546Z" fill="#514339"/>
<path d="M179.91 124.007C182.13 123.627 184.46 123.677 186.7 123.827C188.94 123.977 191.25 124.237 193.4 124.917C191.14 125.307 188.77 125.247 186.5 125.087C184.3 124.937 182.02 124.677 179.91 124.007Z" fill="#514339"/>
<path d="M179.65 133.227C183.44 133.797 187.22 134.367 191.01 134.937C191.54 135.017 192.07 135.097 192.61 135.177C188.78 135.157 184.95 135.147 181.12 135.127C180.58 135.127 180.04 135.127 179.51 135.117C179.56 134.497 179.6 133.867 179.65 133.227Z" fill="#514339"/>
<path d="M190.21 128.628C191.53 128.238 193 128.258 194.36 128.408C195.65 128.548 197 128.818 198.16 129.428C196.84 129.818 195.37 129.798 194.01 129.648C192.72 129.498 191.37 129.228 190.21 128.628Z" fill="#514339"/>
<path d="M173.39 112.518C174.73 112.178 176.2 112.258 177.56 112.458C178.85 112.648 180.19 112.968 181.33 113.618C179.99 113.958 178.52 113.878 177.16 113.678C175.87 113.488 174.52 113.168 173.39 112.518Z" fill="#514339"/>
<path d="M191.01 180.486C193.35 179.746 195.86 179.416 198.3 179.196C200.74 178.976 203.27 178.856 205.7 179.176C203.36 179.926 200.85 180.246 198.41 180.466C195.98 180.686 193.45 180.806 191.01 180.486Z" fill="#514339"/>
<path d="M151.61 173.297L159.15 174.567L151.61 175.837V173.297Z" fill="#514339"/>
<path d="M149.1 144.25C151.81 144.51 154.53 144.77 157.24 145.04C154.58 145.62 151.92 146.21 149.25 146.79C149.2 145.94 149.15 145.1 149.1 144.25Z" fill="#514339"/>
<path d="M151.61 149.43C153.09 149.85 154.57 150.28 156.06 150.7C154.58 151.12 153.1 151.55 151.61 151.97C151.61 151.12 151.61 150.28 151.61 149.43Z" fill="#514339"/>
<path d="M140.33 123.328C143.28 123.708 146.23 124.088 149.18 124.458C146.24 124.928 143.31 125.398 140.37 125.868C140.35 125.028 140.34 124.178 140.33 123.328Z" fill="#514339"/>
<path d="M124.85 106.289C126.88 106.609 128.92 106.929 130.95 107.239C128.92 107.559 126.88 107.879 124.85 108.189C124.85 107.559 124.85 106.919 124.85 106.289Z" fill="#514339"/>
<path d="M151.41 179.239L161.35 178.949L151.81 181.749L151.41 179.239Z" fill="#514339"/>
<path d="M225.54 151.329C223.87 150.909 222.21 150.479 220.54 150.059C222.21 149.639 223.87 149.209 225.54 148.789C225.54 149.639 225.54 150.489 225.54 151.329Z" fill="#514339"/>
<path d="M217.35 171.199C219.15 171.319 220.96 171.449 222.76 171.569C221.1 172.279 219.43 172.989 217.77 173.709C217.63 172.869 217.49 172.039 217.35 171.199Z" fill="#514339"/>
<path d="M218.56 134.177C216.95 133.757 215.34 133.327 213.73 132.907C215.34 132.487 216.95 132.057 218.56 131.637C218.56 132.487 218.56 133.337 218.56 134.177Z" fill="#514339"/>
<path d="M226.27 155.259C223.93 154.839 221.59 154.409 219.26 153.989C221.6 153.569 223.94 153.139 226.27 152.719C226.27 153.559 226.27 154.409 226.27 155.259Z" fill="#514339"/>
<path d="M217.56 165.477C219.92 165.897 222.28 166.327 224.64 166.747C222.28 167.167 219.92 167.597 217.56 168.017C217.56 167.177 217.56 166.327 217.56 165.477Z" fill="#514339"/>
<path d="M205.47 123.957C207.26 124.477 209.04 125.007 210.83 125.527C209 125.847 207.16 126.167 205.33 126.487C205.37 125.647 205.42 124.797 205.47 123.957Z" fill="#514339"/>
<path d="M214.99 141.648C216.41 142.068 217.83 142.498 219.25 142.918C217.83 143.338 216.41 143.768 214.99 144.188C214.99 143.338 214.99 142.488 214.99 141.648Z" fill="#514339"/>
<path d="M126.28 149.739C125.92 147.039 124.27 145.359 122.17 145.559C121.98 145.579 121.8 145.609 121.61 145.659C121.73 145.259 121.85 144.829 122 144.249C122.39 142.719 122.68 140.969 121.89 139.679C121.14 138.439 119.92 138.499 119.33 138.549C119.72 137.319 119.88 136.119 119.61 135.009C119.35 133.969 118.74 133.179 117.89 132.799C117.16 132.469 116.34 132.329 115.53 132.409C113.55 132.599 111.86 133.999 110.88 136.279C109.91 138.569 110.16 140.409 110.53 141.559C110.6 141.769 110.68 141.969 110.77 142.159C110.74 142.099 110.71 142.029 110.69 141.969C109.72 139.979 107.89 138.919 105.8 139.119C105.41 139.159 105.02 139.239 104.62 139.359C102.15 140.109 99.6001 143.009 97.6501 147.099C97.5301 146.699 97.3901 146.359 97.2501 146.079C96.2801 144.089 94.4501 143.029 92.3501 143.229C91.9601 143.269 91.5701 143.349 91.1701 143.469C88.4701 144.299 85.6701 147.689 83.6601 152.399C83.5401 152.079 83.4101 151.769 83.2601 151.479C82.8701 150.719 82.3801 150.089 81.8101 149.619C83.7001 146.009 84.1901 142.549 83.1501 140.089C82.3301 138.149 80.6501 137.099 78.6701 137.289C78.3101 137.319 77.9401 137.399 77.5601 137.509C76.7401 137.759 75.9201 138.219 75.1001 138.889C74.7101 138.609 74.2401 138.529 73.7701 138.669L69.4401 139.989C68.7501 140.199 68.1801 140.869 67.9601 141.719C67.9301 141.839 65.1001 152.849 63.5701 158.599C56.1201 162.479 52.6901 169.599 53.2601 174.559C53.6001 177.519 55.3201 179.309 57.6701 179.199C57.6101 179.409 57.5701 179.619 57.5501 179.839C57.4801 180.919 58.0001 181.859 58.8001 182.139C58.9001 182.169 68.8001 185.609 71.8201 187.129C72.0801 187.259 72.3501 187.309 72.6301 187.279C73.1201 187.229 73.6101 186.939 73.9701 186.439C79.3601 179.019 107.48 169.239 114.71 167.019C125.28 163.819 126.9 154.309 126.28 149.739ZM111.99 160.449C111.99 160.449 111.99 160.459 112 160.459C111.21 160.709 110.23 161.029 109.09 161.389C109.9 160.469 110.66 159.449 111.38 158.349C111.45 159.179 111.65 159.879 111.99 160.449ZM96.8501 164.019C97.2001 164.399 97.5901 164.709 98.0101 164.969C97.1401 165.249 96.2601 165.539 95.3601 165.829C95.8801 165.259 96.3701 164.659 96.8501 164.019ZM82.5501 166.959C83.1201 167.979 83.9001 168.739 84.8301 169.239C82.5301 169.979 80.2601 170.719 78.0601 171.429C79.4401 170.069 80.8201 168.229 82.0101 165.719C82.1501 166.159 82.3301 166.569 82.5501 166.959ZM70.7501 166.119C70.6801 166.139 70.6201 166.149 70.5601 166.159C70.4101 166.169 70.1401 166.159 69.9701 165.909C69.8001 165.659 69.7601 165.179 69.8501 164.589L69.8901 164.469C70.0201 164.049 70.1701 163.569 70.3001 163.069C70.4201 162.689 70.5601 162.169 70.7301 161.529C70.8201 161.199 70.9101 160.839 71.0201 160.449C71.6301 159.639 73.1001 157.879 75.0001 156.849C75.5601 156.539 75.8601 156.529 75.9701 156.539C76.0401 156.799 76.1001 157.779 75.4701 159.549C74.1301 163.319 72.0901 165.709 70.7501 166.119ZM65.8601 173.619C66.3501 174.149 66.9201 174.549 67.5601 174.829C66.2101 175.269 64.9701 175.669 63.8901 176.019C64.5901 175.319 65.2501 174.529 65.8601 173.619ZM112.17 144.169C111.92 144.749 111.68 145.299 111.44 145.829C111.47 144.309 111.18 143.169 110.86 142.379C111.21 143.099 111.67 143.699 112.17 144.169Z" fill="white"/>
<path d="M81.4002 162.146C79.1002 168.786 75.2802 171.586 72.1702 172.536C68.2102 173.746 66.6102 171.816 66.0102 169.426C63.7102 174.186 61.2302 175.886 58.6302 176.676C52.9202 178.426 53.4602 165.726 65.0402 160.356C66.4702 155.016 69.7502 142.296 69.7502 142.296L74.0802 140.976C74.0802 140.976 73.8002 142.096 73.3502 143.836C74.5602 142.146 76.1702 140.336 77.8702 139.816C81.3202 138.756 83.4902 142.496 80.1202 148.676C79.6702 149.506 79.1402 150.266 78.5802 150.936C82.0802 150.786 83.5902 155.816 81.4002 162.146ZM64.2302 163.316C58.1502 166.686 56.4402 173.866 58.6302 173.196C60.1302 172.736 62.0702 170.256 64.2302 163.316ZM74.3502 154.686C71.7102 156.126 69.8302 158.676 69.3802 159.316C68.9902 160.726 68.7102 161.846 68.5302 162.406C68.3802 162.986 68.2002 163.546 68.0402 164.066C67.4302 167.396 69.2102 168.986 71.0602 168.426C73.0502 167.816 75.5702 164.906 77.1602 160.366C78.7902 155.846 77.5802 152.916 74.3502 154.686ZM70.9102 153.356C71.9202 152.766 74.0702 151.286 75.7602 148.976C78.0002 145.876 78.8602 142.686 76.4802 143.416C74.5802 143.996 72.7802 147.316 72.1102 148.716C71.7302 150.216 71.3102 151.816 70.9102 153.356Z" fill="#514339"/>
<path d="M103.3 145.837C100.7 154.137 95.82 165.307 89.82 167.147C83.86 168.967 81.88 163.637 84.32 156.007C86.32 149.807 89.33 146.427 91.47 145.777C94.99 144.697 97.74 148.197 94.99 154.657C93.33 158.527 91.12 160.677 88.89 160.507C88.33 160.487 87.87 160.287 87.48 159.997C87.39 162.537 88.45 163.817 90.54 163.177C94.72 161.897 99 153.267 102.58 143.727C102.89 142.947 103.44 145.377 103.3 145.837ZM88.14 156.537C88.11 156.707 88.06 156.847 88 157.017C89.35 157.797 90.55 156.237 91.54 154.707C92.88 152.607 93.71 148.667 92.47 149.047C91.21 149.437 89.28 152.767 88.14 156.537Z" fill="#514339"/>
<path d="M116.74 141.717C114.14 150.017 109.26 161.187 103.26 163.027C97.3004 164.847 95.3204 159.517 97.7604 151.897C99.7604 145.697 102.77 142.317 104.91 141.667C108.43 140.587 111.18 144.087 108.43 150.547C106.77 154.417 104.56 156.567 102.33 156.397C101.77 156.377 101.31 156.177 100.92 155.887C100.83 158.427 101.89 159.707 103.98 159.067C108.16 157.787 112.44 149.157 116.02 139.617C116.33 138.827 116.89 141.267 116.74 141.717ZM101.58 152.427C101.55 152.597 101.5 152.737 101.44 152.907C102.79 153.687 103.99 152.127 104.98 150.597C106.32 148.497 107.15 144.557 105.91 144.937C104.65 145.327 102.72 148.647 101.58 152.427Z" fill="#514339"/>
<path d="M115.17 159.387C113.57 159.877 112.67 158.647 113.6 155.087C114.29 152.517 115.19 148.817 116.05 145.987C116.94 143.047 115.43 143.287 114.8 143.107C113.37 142.667 111.12 140.587 112.52 137.267C113.64 134.667 115.81 134.437 117.13 135.037C118.56 135.667 117.66 138.047 116.47 140.457C116.64 140.627 116.84 140.757 117.08 140.837C119.13 141.597 121.33 139.317 120.22 143.677C119.81 145.307 119.66 145.517 118.94 148.277C118.68 149.207 118.28 151.057 118.5 151.237C118.73 151.447 119.23 150.607 119.74 149.757C121.36 147.127 124.02 147.317 124.42 150.307C125 154.617 123.12 162.077 114.42 164.737C113.59 164.987 79.2904 175.797 72.6504 184.927C69.5004 183.347 59.4404 179.857 59.4404 179.857C59.4404 179.857 110.83 163.197 114.25 162.147C121.03 160.077 123.72 154.127 123.42 151.867C123.09 149.427 121.07 151.547 119.19 154.827C117.43 157.937 116.17 159.077 115.17 159.387Z" fill="#514339"/>
<path d="M116.75 189.206C116.25 186.076 113.79 183.806 110.91 183.806C110.58 183.806 110.24 183.836 109.92 183.896L98.3102 185.516C96.9502 183.486 94.7702 182.156 92.3102 182.156C89.8902 182.156 87.7502 183.436 86.3902 185.406L75.5802 183.906C74.9202 183.786 74.2202 183.786 73.5702 183.916C72.0102 184.216 70.6502 185.166 69.7302 186.596C68.8202 188.026 68.4702 189.756 68.7402 191.466C69.2402 194.596 71.7002 196.866 74.5802 196.866C74.9102 196.866 75.2402 196.836 75.5702 196.776L86.3702 195.276C86.5902 195.596 86.8402 195.906 87.1002 196.196C85.1902 197.256 83.5902 198.876 82.4602 200.866H82.3702C81.6802 202.906 81.5202 205.836 81.5902 208.436C81.7102 212.996 85.4302 216.726 89.9902 216.786C90.0302 216.786 90.0702 216.786 90.1102 216.786C96.4902 216.786 101.52 212.386 101.82 205.386C102.19 196.906 98.0302 195.536 98.2802 195.166L109.89 196.786C110.22 196.846 110.55 196.876 110.88 196.876C111.22 196.876 111.57 196.846 111.9 196.776C115.15 196.136 117.31 192.746 116.75 189.206Z" fill="#514339"/>
<path d="M95.8383 209.735C100.127 205.339 100.04 198.298 95.6437 194.01C91.2477 189.721 84.2075 189.808 79.9189 194.204C75.6304 198.6 75.7175 205.641 80.1135 209.929C84.5095 214.218 91.5498 214.131 95.8383 209.735Z" fill="white"/>
<path d="M87.8804 214.678C80.8704 214.678 75.1704 208.978 75.1704 201.968C75.1704 194.958 80.8704 189.258 87.8804 189.258C94.8904 189.258 100.59 194.958 100.59 201.968C100.59 208.978 94.8904 214.678 87.8804 214.678ZM87.8804 192.438C82.6204 192.438 78.3504 196.718 78.3504 201.968C78.3504 207.218 82.6304 211.498 87.8804 211.498C93.1404 211.498 97.4104 207.218 97.4104 201.968C97.4104 196.718 93.1404 192.438 87.8804 192.438Z" fill="#514339"/>
<path d="M85.9702 194.158C85.9702 194.158 86.0702 194.148 86.2502 194.118C86.4302 194.108 86.6902 194.038 87.0302 194.048C87.2002 194.048 87.4002 194.048 87.6102 194.058C87.8202 194.078 88.0402 194.108 88.2902 194.148C88.5302 194.188 88.7802 194.258 89.0502 194.318C89.3202 194.388 89.5802 194.508 89.8702 194.618C90.4202 194.878 91.0302 195.188 91.5702 195.648C92.1402 196.088 92.6602 196.638 93.1202 197.288C93.5802 197.928 93.9302 198.678 94.2002 199.468C94.4602 200.268 94.5702 201.118 94.5902 201.968C94.5602 202.458 94.5702 202.718 94.4902 203.208C94.4402 203.658 94.3202 204.058 94.2002 204.468C93.9402 205.258 93.5802 206.008 93.1202 206.648C92.6602 207.288 92.1402 207.848 91.5702 208.288C91.0202 208.748 90.4202 209.068 89.8702 209.318C89.5802 209.418 89.3102 209.538 89.0502 209.618C88.7802 209.678 88.5302 209.748 88.2902 209.788C88.0502 209.818 87.8202 209.858 87.6102 209.878C87.4002 209.888 87.2102 209.878 87.0402 209.888C86.7002 209.908 86.4302 209.838 86.2502 209.818C86.0702 209.788 85.9802 209.778 85.9802 209.778C85.9802 209.778 86.0702 209.758 86.2502 209.708C86.4202 209.658 86.6802 209.618 86.9902 209.508C87.1502 209.458 87.3202 209.408 87.5002 209.338C87.6802 209.258 87.8702 209.178 88.0802 209.098C88.4802 208.908 88.9102 208.658 89.3502 208.368C89.7802 208.048 90.2202 207.688 90.6202 207.248C91.0402 206.818 91.3802 206.298 91.7002 205.748C92.0202 205.198 92.2402 204.578 92.4302 203.948C92.5002 203.628 92.5802 203.298 92.6102 202.998C92.6702 202.748 92.6602 202.238 92.6902 201.968C92.6802 201.298 92.6002 200.628 92.4302 199.988C92.2402 199.358 92.0202 198.738 91.7002 198.188C91.3802 197.638 91.0302 197.118 90.6202 196.688C90.2202 196.248 89.7802 195.888 89.3502 195.568C88.9102 195.278 88.4802 195.028 88.0802 194.838C87.8802 194.748 87.6802 194.678 87.5002 194.598C87.3202 194.528 87.1502 194.478 86.9902 194.428C86.6802 194.318 86.4102 194.278 86.2402 194.228C86.0702 194.188 85.9702 194.158 85.9702 194.158Z" fill="#514339"/>
<path d="M89.4203 232.359H85.6003C84.0503 232.359 82.7903 231.099 82.7903 229.549V214.239C82.7903 214.239 79.8403 209.889 79.8403 203.029C79.8403 199.749 81.1003 200.219 82.6503 200.219H86.4703C88.0203 200.219 89.2803 203.029 89.2803 203.029C89.2803 212.389 92.2303 211.219 92.2303 214.709C92.2303 219.489 92.2303 229.549 92.2303 229.549C92.2403 231.099 90.9803 232.359 89.4203 232.359Z" fill="#514339"/>
<path d="M87.0303 182.165L69.2703 179.915C68.7303 179.825 68.1403 179.815 67.5703 179.915C64.8803 180.385 63.0903 182.945 63.5603 185.625C64.0303 188.315 66.5903 190.105 69.2703 189.635L87.0303 187.385V182.165V182.165Z" fill="white"/>
<path d="M68.4202 191.307C65.2502 191.307 62.5502 189.037 62.0002 185.907C61.7002 184.187 62.0802 182.457 63.0902 181.037C64.0902 179.607 65.5902 178.657 67.3002 178.357C68.0202 178.227 68.7802 178.227 69.5102 178.347L88.6302 180.767V188.787L69.5202 191.207C69.1502 191.277 68.7802 191.307 68.4202 191.307ZM68.4202 181.437C68.2202 181.437 68.0302 181.457 67.8502 181.487C66.9702 181.637 66.2002 182.127 65.6902 182.857C65.1802 183.587 64.9802 184.477 65.1302 185.357C65.4102 186.967 66.8002 188.127 68.4202 188.127C68.6102 188.127 68.8102 188.107 69.0002 188.077L69.0702 188.067L85.4402 185.997V183.577L69.0002 181.487C68.8102 181.447 68.6202 181.437 68.4202 181.437Z" fill="#514339"/>
<path d="M87.88 191.367C91.5196 191.367 94.47 188.417 94.47 184.778C94.47 181.138 91.5196 178.188 87.88 178.188C84.2405 178.188 81.29 181.138 81.29 184.778C81.29 188.417 84.2405 191.367 87.88 191.367Z" fill="white"/>
<path d="M87.88 192.957C83.37 192.957 79.71 189.287 79.71 184.787C79.71 180.277 83.38 176.617 87.88 176.617C92.39 176.617 96.05 180.287 96.05 184.787C96.06 189.287 92.39 192.957 87.88 192.957ZM87.88 179.777C85.12 179.777 82.88 182.017 82.88 184.777C82.88 187.537 85.12 189.777 87.88 189.777C90.64 189.777 92.88 187.537 92.88 184.777C92.88 182.027 90.64 179.777 87.88 179.777Z" fill="#514339"/>
<path d="M113.18 183.925C112.71 181.235 110.15 179.445 107.47 179.915L92.9901 181.755C91.7201 182.265 90.9101 183.515 90.9501 184.875C90.9901 186.185 91.8301 187.355 93.0701 187.825C97.8701 188.435 102.67 189.045 107.47 189.655C108.01 189.745 108.6 189.755 109.17 189.655C111.85 189.165 113.65 186.605 113.18 183.925Z" fill="white"/>
<path d="M108.32 191.296C107.96 191.296 107.59 191.266 107.23 191.206L92.6703 189.366L92.4903 189.296C90.6403 188.596 89.4103 186.876 89.3503 184.906C89.2903 182.896 90.5103 181.036 92.3803 180.276L92.5703 180.196L107.22 178.336C107.58 178.276 107.95 178.246 108.31 178.246C111.48 178.246 114.18 180.516 114.73 183.646C115.35 187.186 112.97 190.576 109.43 191.196C109.08 191.266 108.7 191.296 108.32 191.296ZM93.4703 186.266L107.72 188.076C107.91 188.106 108.11 188.126 108.31 188.126C108.5 188.126 108.7 188.106 108.88 188.076C110.7 187.756 111.92 186.016 111.6 184.196C111.32 182.586 109.93 181.426 108.31 181.426C108.12 181.426 107.92 181.446 107.73 181.476L107.66 181.486L93.4203 183.286C92.8603 183.586 92.5103 184.176 92.5303 184.806C92.5503 185.436 92.9203 185.996 93.4703 186.266Z" fill="#514339"/>
<path d="M67.48 186.845C70 187.435 72.75 186.955 75.27 186.645C77.56 186.365 79.88 186.045 82.12 185.495C79.81 185.365 77.48 185.475 75.17 185.615C72.64 185.775 69.85 185.805 67.48 186.845Z" fill="#514339"/>
<path d="M108.89 186.657C106.58 185.567 103.82 185.517 101.31 185.357C98.9103 185.207 96.4903 185.087 94.0903 185.237C96.4203 185.837 98.8203 186.187 101.2 186.487C103.69 186.817 106.41 187.287 108.89 186.657Z" fill="#514339"/>
<path d="M84.27 186.066C84.65 189.966 91.56 190.046 91.81 186.066C90.84 187.246 89.59 187.676 88.15 187.686C86.63 187.696 85.32 187.276 84.27 186.066Z" fill="#514339"/>
<path d="M68.2802 221.417C65.4702 221.417 63.2202 220.357 63.2202 217.547V209.507C63.2202 201.267 71.2202 196.887 76.9902 196.887H83.6102C86.4202 196.887 88.6902 199.167 88.6902 201.967C88.6902 204.767 86.4102 207.047 83.6102 207.047H76.9902C76.2802 207.047 73.3802 207.837 73.3802 209.507V217.547C73.3802 220.357 71.0902 221.417 68.2802 221.417Z" fill="white"/>
<path d="M68.2804 223.007C64.1204 223.007 61.6304 220.967 61.6304 217.547V209.507C61.6304 200.237 70.5504 195.297 76.9904 195.297H83.6104C87.2904 195.297 90.2804 198.287 90.2804 201.967C90.2804 205.647 87.2904 208.637 83.6104 208.637H76.9904C76.4604 208.667 75.1404 209.197 74.9604 209.567L74.9704 217.547C74.9704 220.917 72.4104 223.007 68.2804 223.007ZM76.9904 198.477C71.8804 198.477 64.8104 202.317 64.8104 209.517V217.557C64.8104 218.177 64.8104 219.837 68.2804 219.837C71.7904 219.837 71.7904 218.117 71.7904 217.557V209.517C71.7904 206.477 75.8904 205.467 76.9904 205.467H83.6104C85.5404 205.467 87.1004 203.897 87.1004 201.977C87.1004 200.057 85.5304 198.487 83.6104 198.487H76.9904V198.477Z" fill="#514339"/>
<path d="M85.5204 203.927C82.6204 204.227 79.7004 204.267 76.7904 204.297C76.8004 204.297 76.8204 204.297 76.8304 204.297C74.0304 204.487 70.7804 206.657 70.8904 209.707C71.0004 212.717 71.0604 215.837 70.5804 218.817C69.9804 216.847 69.6904 214.777 69.3904 212.747C69.1304 210.987 68.7204 209.027 69.3804 207.297C70.2304 205.107 72.3704 203.657 74.5704 203.047C76.3804 202.547 78.1804 202.877 80.0004 203.097C81.8604 203.327 83.7004 203.577 85.5204 203.927Z" fill="#514339"/>
<path d="M108.602 111.185L105.706 115.051L108.17 116.898L111.067 113.032L108.602 111.185Z" fill="#514339"/>
<path d="M129.394 133.817L123.031 136.875L124.366 139.651L130.729 136.593L129.394 133.817Z" fill="#514339"/>
<path d="M137.29 167.75H129.93V170.83H137.29V167.75Z" fill="#514339"/>
<path d="M127.426 195.795L125.248 197.973L131.025 203.75L133.203 201.572L127.426 195.795Z" fill="#514339"/>
<path d="M112 222.468L109.612 224.414L113.952 229.74L116.34 227.794L112 222.468Z" fill="#514339"/>
<path d="M62.6329 111.173L60.168 113.02L63.064 116.885L65.529 115.038L62.6329 111.173Z" fill="#514339"/>
<path d="M41.8149 133.802L40.481 136.578L46.8441 139.636L48.1781 136.86L41.8149 133.802Z" fill="#514339"/>
<path d="M41.3102 167.75H33.9502V170.83H41.3102V167.75Z" fill="#514339"/>
<path d="M43.8131 195.797L38.0361 201.574L40.214 203.752L45.991 197.975L43.8131 195.797Z" fill="#514339"/>
<path d="M59.2055 222.487L54.8657 227.812L57.2534 229.758L61.5931 224.433L59.2055 222.487Z" fill="#514339"/>
<path d="M87.5102 236.047H84.4302V240.657H87.5102V236.047Z" fill="#514339"/>
<path d="M87.5102 102.488H84.4302V107.088H87.5102V102.488Z" fill="#514339"/>
<path d="M18.29 71.732L4.63 57.7119L2.28 60.0019L0 57.6619L6.68 51.1519C8.64 49.2419 10.25 47.9419 11.49 47.2719C12.74 46.6019 14.17 46.4319 15.78 46.7719C17.39 47.1119 18.85 47.9519 20.15 49.2819C21.19 50.3519 21.9 51.5119 22.29 52.7819C22.68 54.0519 22.75 55.202 22.5 56.232C22.25 57.262 21.8 58.2319 21.13 59.1519C20.46 60.0719 19.32 61.3219 17.7 62.9019L16.41 64.1619L21.1 68.9719L23.52 66.6119L25.8 68.952L18.21 76.352L15.93 74.012L18.29 71.732ZM14.22 61.9119L15.83 60.3419C17.67 58.5519 18.68 57.0519 18.88 55.8319C19.08 54.6219 18.53 53.3519 17.24 52.0219C16.42 51.1819 15.55 50.6619 14.63 50.4719C13.71 50.2819 12.9 50.3819 12.2 50.7719C11.5 51.1619 10.49 51.9919 9.2 53.2519L7.45 54.952L14.22 61.9119Z" fill="#4F453E"/>
<path d="M46.3001 48.1284L36.3701 31.2584L33.2801 33.0784L31.6201 30.2684L40.7601 24.8884C42.6701 23.7684 44.2701 23.0184 45.5701 22.6584C46.8701 22.2984 48.1601 22.3784 49.4601 22.8984C50.7501 23.4184 51.8201 24.3884 52.6601 25.8184C54.4101 28.7984 53.9701 31.5784 51.3301 34.1584L60.1201 39.9984L62.8701 38.3784L64.5301 41.1884L59.6601 44.0584L48.3501 36.5584L45.1801 38.4284L49.7101 46.1284L52.5901 44.4384L54.2501 47.2484L44.8901 52.7584L43.2301 49.9484L46.3001 48.1284ZM43.5101 35.6184L46.1601 34.0584C47.4401 33.2984 48.3401 32.6584 48.8501 32.1384C49.3601 31.6084 49.6601 30.9784 49.7501 30.2384C49.8401 29.4984 49.6301 28.6984 49.1201 27.8384C48.6901 27.1084 48.1301 26.5984 47.4401 26.3284C46.7501 26.0584 46.0701 26.0184 45.4201 26.2184C44.7601 26.4184 43.8401 26.8784 42.6601 27.5684L39.7801 29.2584L43.5101 35.6184Z" fill="#4F453E"/>
<path d="M80.4999 31.3195L75.0299 12.5295L71.7899 13.4695L70.8799 10.3295L91.7099 4.26953L93.9099 11.8195L90.8099 12.7195L89.5299 8.30954L78.8299 11.4196L80.9999 18.8795L90.3099 16.1696L91.2199 19.3095L81.9099 22.0195L84.2999 30.2195L94.9999 27.1095L93.6699 22.5495L96.7699 21.6495L99.0099 29.3395L78.1799 35.3995L77.2699 32.2596L80.4999 31.3195Z" fill="#4F453E"/>
<path d="M117.64 23.29L117.32 3.72L114.19 3.76999L114.14 0.51001L123.07 0.369995L130.23 18.15L136.88 0.149994L145.9 0L145.95 3.26001L142.8 3.31L143.12 22.88L146.27 22.83L146.32 26.09L136.49 26.25L136.44 22.99L139.55 22.94L139.23 3.37L130.6 26.61L129.83 26.62L120.54 3.67001L120.86 23.24L123.73 23.19L123.78 26.45L114.55 26.6L114.5 23.34L117.64 23.29Z" fill="#4F453E"/>
<path d="M165.68 26.9889L170.31 7.9689L167.58 7.29889L168.35 4.12891L177.65 6.3989L176.88 9.56891L174.15 8.8989L169.52 27.9189L172.25 28.5889L171.48 31.7589L162.18 29.4889L162.95 26.3189L165.68 26.9889Z" fill="#4F453E"/>
<path d="M203.11 19.0518L197.32 30.7619C196.42 32.5819 195.89 33.8819 195.74 34.6719C195.58 35.4619 195.75 36.2819 196.25 37.1319C196.75 37.9819 197.58 38.7019 198.75 39.2719C200.14 39.9619 201.31 40.2719 202.26 40.2219C203.21 40.1719 203.98 39.8419 204.57 39.2519C205.16 38.6619 205.91 37.4619 206.8 35.6519L212.67 23.7719L209.96 22.4319L211.41 19.5019L220.56 24.0219L219.11 26.9519L216.18 25.5019L210.14 37.7319C209.33 39.3819 208.66 40.5419 208.16 41.2219C207.65 41.9019 206.89 42.4919 205.87 43.0019C204.85 43.5119 203.66 43.7319 202.3 43.6619C200.94 43.5919 199.45 43.1619 197.85 42.3719C196.08 41.4919 194.72 40.5419 193.76 39.5019C192.81 38.4619 192.22 37.4218 192 36.3618C191.78 35.3018 191.79 34.3018 192.02 33.3318C192.25 32.3718 192.81 30.9819 193.71 29.1619L199.58 17.2819L196.69 15.8519L198.14 12.9219L207.34 17.4719L205.89 20.4019L203.11 19.0518Z" fill="#4F453E"/>
<path d="M226.23 55.3397L239.51 40.9597L237.21 38.8297L239.42 36.4297L245.98 42.4897L238.89 60.2997L256.13 51.8597L262.76 57.9797L260.55 60.3797L258.23 58.2397L244.95 72.6197L247.27 74.7597L245.06 77.1597L237.84 70.4897L240.05 68.0897L242.34 70.1997L255.62 55.8197L233.33 66.6797L232.76 66.1597L241.88 43.1397L228.6 57.5197L230.71 59.4697L228.5 61.8697L221.72 55.6097L223.93 53.2097L226.23 55.3397Z" fill="#4F453E"/>
<path d="M128.17 71.9391V71.8891C127.89 72.0291 127.54 72.1491 127.11 72.2491C126.68 72.3491 126.19 72.4691 125.64 72.6091C123.68 73.0191 121.43 73.2291 118.89 73.2291C114.8 73.2291 110.16 72.6491 104.97 71.4791C101.36 70.6591 98.3403 70.3291 95.9003 70.4991C95.2803 70.5691 94.7103 70.6391 94.1703 70.7091C93.6403 70.7791 93.1503 70.8791 92.7003 71.0191L90.2803 71.7891C89.9703 71.8891 89.7003 71.9391 89.4603 71.9391C89.2903 71.9391 89.0803 71.8491 88.8403 71.6791C88.8703 71.4691 89.2903 71.1791 90.0803 70.7991C92.6903 69.6991 96.3903 69.1491 101.16 69.1491C104.73 69.1491 108.17 69.5091 111.47 70.2291C117.07 71.4291 120.88 72.0291 122.91 72.0291C123.39 71.9591 124.05 71.8891 124.89 71.8191C125.73 71.7491 126.75 71.6791 127.96 71.6091C128.17 71.6091 128.32 71.6591 128.42 71.7591L128.17 71.9391ZM116.42 55.5991C115.04 58.0091 113.05 60.3791 110.44 62.7091C105.73 66.9391 101.28 69.0491 97.0903 69.0491C94.8903 69.0491 93.0803 68.4391 91.6503 67.2191C90.2203 65.9991 89.3903 64.3091 89.1503 62.1391C88.7003 58.4591 90.0103 54.3591 93.0703 49.8191C93.5503 49.0591 94.1303 48.2991 94.8203 47.5291C95.5103 46.7591 96.3003 45.9591 97.1903 45.1291C101.24 41.2791 105.68 39.1891 110.49 38.8391C114.79 38.4591 117.45 39.4791 118.48 41.8791C117.07 41.0591 115.35 40.6391 113.33 40.6391C107.97 40.6391 102.87 43.5591 98.0203 49.3991C95.9903 51.8691 94.4103 54.5491 93.2803 57.4391C92.6303 59.0891 92.3003 60.5791 92.3003 61.9191C92.3003 64.1891 93.3103 65.7291 95.3403 66.5591C96.0603 66.8691 96.9703 66.9391 98.0703 66.7691C98.4503 66.6991 98.8503 66.6191 99.2803 66.5091C99.7103 66.4091 100.15 66.2691 100.59 66.0991C105.02 64.5191 109.28 60.6691 113.37 54.5491C114.71 52.5191 115.65 50.6291 116.2 48.8791C116.68 47.3691 116.66 46.1791 116.15 45.3191C115.63 44.6691 114.91 44.3391 113.98 44.3391C112.16 44.3391 110.2 45.1791 108.1 46.8691C105.14 49.2791 103.46 51.9691 103.05 54.9591C102.98 55.4791 102.98 55.9691 103.05 56.4591C103.12 56.7391 103.15 56.8891 103.15 56.9191C103.08 56.9891 103 57.0191 102.89 57.0191C102.75 57.0191 102.67 56.9691 102.63 56.8691C101.53 55.4591 100.98 54.0691 100.98 52.6991C100.98 51.5291 101.34 50.2991 102.06 48.9891C104.05 45.3491 106.92 43.0091 110.67 41.9791C111.94 41.6391 113.28 41.5891 114.69 41.8291C116 42.0391 117.06 42.6791 117.89 43.7591C118.71 44.8391 119.13 46.0691 119.13 47.4491C119.15 49.7291 118.24 52.4391 116.42 55.5991Z" fill="#514339"/>
<path d="M128.631 56.8375C128.601 57.1775 128.111 58.0775 127.191 59.5175L124.871 63.1275C123.671 64.9875 123.131 65.9075 123.271 65.9075C123.651 66.0775 124.371 65.8575 125.431 65.2375C125.911 64.9675 126.331 64.7275 126.691 64.5375C127.051 64.3475 127.351 64.1875 127.591 64.0475C128.211 63.9075 128.521 64.0775 128.521 64.5675C128.521 65.0475 127.781 65.6975 126.301 66.5275C124.441 67.5975 122.761 68.0375 121.251 67.8675C120.971 67.7975 120.771 67.6575 120.631 67.4575C120.421 67.0775 120.651 66.4075 121.301 65.4475L120.271 66.3275L118.671 67.0975C117.331 67.7475 116.071 68.0075 114.911 67.8675C114.261 67.7675 114.021 67.2975 114.191 66.4775C114.221 66.2675 114.791 65.1875 115.891 63.2275L117.131 61.0075C118.331 58.8775 119.311 57.3975 120.071 56.5775C120.381 56.1975 120.881 56.0975 121.561 56.2675C122.081 56.3675 122.301 56.5575 122.231 56.8375C122.201 57.1775 121.711 58.0775 120.791 59.5175L118.471 63.1275C117.271 64.9875 116.731 65.9075 116.871 65.9075C117.391 66.1175 118.691 65.5775 120.791 64.3075C121.611 63.8275 122.521 62.7275 123.521 61.0075C123.861 60.4275 124.271 59.7575 124.731 59.0275C125.191 58.2875 125.751 57.4775 126.411 56.5775C126.751 56.2375 127.271 56.1275 127.961 56.2675C128.481 56.3775 128.701 56.5675 128.631 56.8375Z" fill="#514339"/>
<path d="M141.21 64.5694C141.21 65.0494 140.49 65.6994 139.04 66.5294C137.18 67.5994 135.48 68.0394 133.94 67.8694C133.32 67.8394 133.1 67.3694 133.27 66.4794C132.07 67.4794 130.97 67.9694 129.97 67.9694C128.49 67.9694 127.63 67.0894 127.39 65.3394C127.08 63.0694 128.11 60.7194 130.48 58.2794C132.03 56.6694 133.5 55.8594 134.91 55.8594C136.59 55.8594 137.42 56.8894 137.38 58.9494C137.93 57.9894 138.31 57.3994 138.51 57.1994C139.06 56.6194 139.68 56.3894 140.37 56.5294C140.85 56.5994 141.06 56.7894 140.99 57.0994C140.96 57.2694 140.65 57.8594 140.06 58.8494C139.48 59.8494 138.63 61.2694 137.53 63.1294C136.4 64.9894 135.86 65.9094 135.93 65.9094C136.31 66.0794 137.03 65.8594 138.09 65.2394L140.2 64.0494C140.88 63.9194 141.21 64.0894 141.21 64.5694ZM135.95 61.3794C136.16 60.6894 136.17 59.9894 136 59.2694C135.83 58.4494 135.36 58.0294 134.61 58.0294C133.54 58.0294 132.53 58.6994 131.57 60.0394C130.64 61.3494 130.18 62.5494 130.18 63.6494C130.18 65.0594 130.75 65.7594 131.88 65.7594C132.7 65.7594 133.56 65.2394 134.46 64.2094L134.98 63.2294L135.86 61.6294C135.89 61.5594 135.91 61.5094 135.91 61.4794C135.9 61.4494 135.92 61.4094 135.95 61.3794Z" fill="#514339"/>
<path d="M153.27 47.6683C152.86 49.8983 152 52.2082 150.69 54.5782C148.15 59.1182 145.48 62.4083 142.7 64.4783C142.32 65.1683 142.13 65.5782 142.13 65.7182C142.13 65.8582 142.2 65.9383 142.34 65.9783C142.82 66.1183 143.78 65.8382 145.23 65.1582C145.78 64.8882 146.23 64.6682 146.57 64.5182C146.91 64.3682 147.15 64.2482 147.29 64.1882C147.91 64.0482 148.22 64.2182 148.22 64.7082C148.25 64.8782 148.15 65.1383 147.91 65.4783C145.5 67.1583 143.31 68.0083 141.31 68.0083C140.62 68.0083 140.14 67.8182 139.87 67.4382C139.53 66.9882 139.54 66.2182 139.92 65.1182C139.95 65.0882 140.05 64.8683 140.2 64.4783C140.35 64.0783 140.6 63.5082 140.95 62.7482C142.12 59.9682 143.39 57.4083 144.76 55.0683C146.34 52.3583 147.2 50.9283 147.34 50.7883C149.54 47.2883 151.22 45.5282 152.39 45.5282C153.22 45.4982 153.51 46.2183 153.27 47.6683ZM152.08 47.8682C152.08 47.7282 152.06 47.6482 152.03 47.6082C151.1 48.3282 148.8 52.1282 145.12 58.9982C144.84 59.5482 144.58 60.0682 144.32 60.5482C144.06 61.0282 143.85 61.5082 143.68 61.9882C144.26 61.5082 144.89 60.8782 145.56 60.1082C146.23 59.3382 146.91 58.4183 147.6 57.3483C148.6 55.8383 149.44 54.4282 150.13 53.1182C150.82 51.8082 151.33 50.5882 151.68 49.4582C151.82 49.0782 151.91 48.7583 151.96 48.5083C152.01 48.2583 152.05 48.0482 152.08 47.8682Z" fill="#514339"/>
<path d="M154.2 64.5694C154.2 65.0494 153.46 65.6994 151.98 66.5294C150.12 67.5994 148.46 68.0394 146.98 67.8694C146.33 67.8394 146.09 67.3694 146.26 66.4794C146.29 66.3394 146.86 65.2594 147.96 63.2294L149.35 60.8094C149.69 60.1894 150.08 59.5394 150.51 58.8494C150.94 58.1594 151.45 57.4194 152.03 56.6294C152.34 56.3194 152.84 56.2194 153.52 56.3194C154.04 56.4194 154.26 56.6094 154.19 56.8894C154.12 57.1994 152.9 59.2794 150.53 63.1294C149.4 64.9894 148.86 65.9094 148.93 65.9094C149.34 66.0794 150.08 65.8594 151.15 65.2394L153.26 64.0494C153.89 63.9194 154.2 64.0894 154.2 64.5694ZM157.65 51.8394C157.65 52.2494 157.46 52.7494 157.08 53.3294C156.12 54.8094 155.1 55.5494 154.04 55.5494C153.56 55.5494 153.32 55.3094 153.32 54.8294C153.32 54.4194 153.51 53.9194 153.89 53.3294C154.85 51.8494 155.87 51.1094 156.93 51.1094C157.41 51.1194 157.65 51.3594 157.65 51.8394Z" fill="#514339"/>
<path d="M166.15 53.3408C166.08 53.5508 165.96 53.6508 165.79 53.6508H162.23L156.41 63.1308C155.28 64.9908 154.74 65.9108 154.81 65.9108C155.19 66.0808 155.91 65.8608 156.97 65.2408C157.45 64.9708 157.87 64.7308 158.23 64.5408C158.59 64.3508 158.89 64.1908 159.13 64.0508C159.75 63.9108 160.06 64.0808 160.06 64.5708C160.06 65.0508 159.32 65.7008 157.84 66.5308C155.98 67.6008 154.3 68.0408 152.79 67.8708C152.17 67.8408 151.95 67.3708 152.12 66.4808C152.15 66.1708 152.72 65.0908 153.82 63.2308L159.59 53.6408H157.27C157.13 53.6408 157.12 53.5408 157.22 53.3308L157.43 52.8708C157.53 52.6608 157.67 52.5608 157.84 52.5608H160.16C160.92 51.1508 161.57 50.1708 162.12 49.6208C162.43 49.3108 162.93 49.2108 163.61 49.3108C164.13 49.4108 164.35 49.6008 164.28 49.8808C164.25 50.0508 164.11 50.3608 163.87 50.8108C163.63 51.2608 163.29 51.8608 162.84 52.6108L162.99 52.3508C162.92 52.3508 162.87 52.4208 162.84 52.5608H166.29C166.46 52.5608 166.5 52.6608 166.39 52.8708L166.15 53.3408Z" fill="#514339"/>
<path d="M173.061 64.571C173.091 64.981 172.771 65.4109 172.081 65.8609C170.461 66.8609 168.591 67.6809 166.461 68.3309L164.191 72.041C163.431 73.311 162.831 74.3109 162.391 75.0309C161.941 75.7509 161.651 76.2009 161.511 76.3709C159.891 78.5309 158.661 79.501 157.801 79.261C157.111 79.091 156.771 78.4209 156.771 77.2509C156.771 76.1509 157.181 74.8309 158.011 73.2809C158.771 71.9409 159.621 70.8109 160.561 69.9009C161.501 68.9909 162.771 68.1909 164.351 67.5009L165.171 66.1609C164.211 66.9209 162.881 67.451 161.201 67.761C160.821 67.831 160.481 67.871 160.171 67.891C159.861 67.911 159.571 67.9009 159.291 67.8609C158.601 67.7609 158.361 67.3409 158.571 66.6209C158.641 66.3509 158.761 66.0409 158.931 65.6909C159.101 65.3509 159.311 64.9709 159.551 64.5609C160.071 63.6709 160.741 62.5509 161.561 61.2109C162.381 59.8709 163.351 58.321 164.451 56.571C164.591 56.331 164.981 56.2109 165.641 56.2109C166.401 56.2109 166.721 56.4209 166.621 56.8309C166.521 57.3109 165.281 59.4109 162.911 63.1209C162.571 63.6709 162.261 64.181 161.981 64.641C161.701 65.101 161.481 65.5309 161.311 65.9009C161.411 65.9309 161.571 65.951 161.771 65.951C162.321 65.951 163.141 65.661 164.241 65.071C164.721 64.801 165.151 64.5309 165.531 64.2709C165.911 64.0109 166.231 63.7509 166.511 63.4709C166.851 63.1309 167.201 62.7009 167.541 62.1809C167.991 61.4609 168.481 60.6309 169.031 59.7109C169.581 58.7809 170.201 57.771 170.891 56.671C171.101 56.331 171.611 56.2209 172.441 56.3609C172.921 56.4309 173.131 56.6209 173.061 56.9309C172.991 57.2109 172.921 57.3909 172.851 57.5009C172.681 58.0209 172.211 58.8709 171.461 60.0809L167.701 66.261C168.761 65.991 170.241 65.251 172.131 64.041C172.751 63.921 173.061 64.091 173.061 64.571ZM163.161 69.5209C161.821 70.1709 160.631 71.1509 159.601 72.4609C158.571 73.7709 157.931 75.1409 157.691 76.5809C157.661 76.9209 157.661 77.1509 157.691 77.2509C157.761 77.3509 157.831 77.391 157.901 77.351C158.281 77.181 158.811 76.5809 159.501 75.5509C160.191 74.5909 160.771 73.711 161.251 72.921C161.731 72.131 162.141 71.411 162.491 70.761L163.161 69.5209Z" fill="#514339"/>
<path d="M4.24023 189.031V186.32H5.69024V175.13C5.27024 175.31 4.79023 175.441 4.24023 175.521V172.891C5.65023 172.601 6.90023 171.88 7.99023 170.73H9.47023V186.331H10.8802V189.04H4.24023V189.031Z" fill="#514339"/>
<path d="M14.1604 185.012L17.5504 184.752C17.5704 185.482 17.6604 186.022 17.8004 186.362C17.9404 186.702 18.1904 186.872 18.5304 186.872C18.9404 186.872 19.2104 186.652 19.3404 186.202C19.4804 185.762 19.5404 184.852 19.5404 183.492V181.792C18.9904 182.202 18.3804 182.412 17.6904 182.412C16.4804 182.412 15.5404 181.932 14.8704 180.972C14.2004 180.012 13.8604 178.652 13.8604 176.892C13.8604 174.792 14.2804 173.242 15.1304 172.242C15.9804 171.242 17.1004 170.742 18.5004 170.742C20.1704 170.742 21.3704 171.392 22.1004 172.682C22.8304 173.972 23.2004 176.152 23.2004 179.202V181.492C23.2004 184.132 22.8403 186.102 22.1203 187.432C21.4003 188.752 20.2004 189.412 18.5304 189.412C17.3004 189.412 16.2904 189.022 15.5004 188.242C14.7104 187.452 14.2604 186.382 14.1604 185.012ZM19.5404 179.262V175.502C19.5404 174.662 19.4704 174.072 19.3304 173.742C19.1904 173.402 18.9304 173.242 18.5604 173.242C18.1404 173.242 17.8604 173.462 17.7304 173.902C17.6004 174.342 17.5304 175.172 17.5304 176.402C17.5304 177.782 17.6104 178.702 17.7604 179.142C17.9204 179.592 18.2004 179.812 18.6104 179.812C18.9504 179.802 19.2604 179.622 19.5404 179.262Z" fill="#514339"/>
<path d="M245.36 179.349C246.33 179.799 247.04 180.399 247.49 181.139C247.94 181.879 248.16 182.859 248.16 184.069C248.16 185.689 247.75 186.979 246.94 187.939C246.13 188.899 244.93 189.379 243.34 189.379C241.78 189.379 240.58 188.909 239.75 187.959C238.91 187.009 238.5 185.729 238.5 184.109C238.5 182.859 238.72 181.859 239.16 181.119C239.6 180.379 240.3 179.789 241.27 179.329C239.59 178.569 238.75 177.249 238.75 175.369C238.75 173.979 239.17 172.849 240.02 171.989C240.87 171.129 241.97 170.699 243.34 170.699C244.69 170.699 245.79 171.129 246.64 171.999C247.49 172.859 247.91 173.989 247.91 175.369C247.91 177.279 247.06 178.599 245.36 179.349ZM244.67 175.839C244.67 174.829 244.57 174.119 244.36 173.709C244.15 173.289 243.8 173.089 243.29 173.089C242.81 173.089 242.47 173.309 242.28 173.739C242.09 174.169 242 174.899 242 175.939C242 176.789 242.1 177.399 242.29 177.769C242.48 178.139 242.82 178.329 243.29 178.329C243.79 178.329 244.14 178.129 244.35 177.739C244.56 177.339 244.67 176.709 244.67 175.839ZM244.64 183.639C244.64 182.479 244.54 181.649 244.33 181.159C244.12 180.659 243.79 180.419 243.32 180.419C242.84 180.419 242.51 180.669 242.32 181.159C242.13 181.659 242.04 182.479 242.04 183.639C242.04 184.919 242.12 185.809 242.29 186.289C242.46 186.769 242.81 187.009 243.35 187.009C243.85 187.009 244.2 186.749 244.38 186.239C244.55 185.719 244.64 184.849 244.64 183.639Z" fill="#514339"/>
<path d="M258.73 175.099L255.34 175.359C255.32 174.629 255.24 174.089 255.1 173.749C254.96 173.409 254.71 173.239 254.35 173.239C253.99 173.239 253.73 173.429 253.58 173.809C253.43 174.189 253.36 174.839 253.36 175.759V178.319C253.9 177.909 254.51 177.699 255.2 177.699C256.41 177.699 257.35 178.179 258.03 179.149C258.71 180.119 259.04 181.469 259.04 183.219C259.04 185.209 258.64 186.729 257.84 187.799C257.04 188.859 255.89 189.389 254.4 189.389C252.97 189.389 251.92 188.969 251.25 188.139C250.57 187.299 250.15 186.219 249.98 184.889C249.81 183.559 249.72 181.749 249.72 179.459C249.72 176.129 250.09 173.839 250.82 172.589C251.55 171.339 252.73 170.719 254.35 170.719C255.58 170.719 256.6 171.109 257.39 171.879C258.18 172.649 258.63 173.729 258.73 175.099ZM253.37 180.859V184.749C253.37 185.539 253.43 186.089 253.56 186.409C253.69 186.729 253.95 186.889 254.35 186.889C254.74 186.889 255 186.679 255.14 186.259C255.28 185.839 255.35 184.989 255.35 183.719C255.35 182.329 255.27 181.409 255.12 180.979C254.96 180.539 254.69 180.319 254.3 180.319C253.94 180.309 253.63 180.489 253.37 180.859Z" fill="#514339"/>
</svg>
