<svg width="199" height="220" viewBox="0 0 199 220" fill="none" xmlns="http://www.w3.org/2000/svg">
<path d="M56.225 129.233C53.175 127.103 45.605 122.023 38.065 115.853C26.455 106.343 14.425 95.0132 14.425 95.0132C14.425 95.0132 11.805 96.3132 9.50501 94.7132C6.81501 92.8332 4.96504 88.4032 4.96504 88.4032C4.96504 88.4032 3.38502 88.9832 1.91502 87.9632C0.435017 86.9332 0.645028 85.3832 0.645028 85.3832L6.60502 76.8632L7.26502 75.9132L13.225 67.3932C13.225 67.3932 14.615 66.6732 16.085 67.7032C17.555 68.7332 17.555 70.4232 17.555 70.4232C17.555 70.4232 22.345 70.6432 25.035 72.5232C27.335 74.1332 27.015 77.0332 27.015 77.0332C27.015 77.0332 42.055 84.5832 55.075 92.2832C63.315 97.1532 70.355 102.653 73.515 104.523C77.935 107.613 89.735 102.703 98.835 109.063C107.935 115.423 183.845 168.473 187.945 171.343C194.525 175.943 190.555 183.433 180.925 197.293C180.815 197.453 180.705 197.603 180.595 197.763C180.485 197.923 180.375 198.073 180.265 198.233C170.565 212.043 164.895 218.343 158.315 213.743C154.215 210.873 78.305 157.823 69.205 151.463C60.105 145.103 60.535 132.243 56.225 129.233Z" fill="#514339"/>
<path d="M64.6648 105.061C60.6248 101.671 56.2048 98.6906 51.7948 95.8106C46.6748 92.4606 41.4448 89.2506 36.0948 86.2906C33.5848 84.9006 31.0448 83.5606 28.4248 82.3906C32.1948 86.1506 36.4848 89.4006 40.8748 92.4006C45.9348 95.8706 51.2548 99.0106 56.7748 101.701C59.3448 102.961 61.9648 104.121 64.6648 105.061Z" fill="white"/>
<path d="M185.525 175.904C180.245 172.004 174.865 168.234 169.505 164.444C163.315 160.064 157.085 155.734 150.875 151.384C144.395 146.854 137.915 142.314 131.435 137.784C125.195 133.424 118.935 129.074 112.685 124.714C106.945 120.704 101.165 116.744 95.3552 112.844C94.9352 112.564 94.5152 112.284 94.0952 112.004C98.9752 116.334 104.005 120.484 109.105 124.564C115.075 129.354 121.175 133.994 127.355 138.504C133.665 143.114 140.055 147.614 146.545 151.984C152.955 156.304 159.445 160.504 166.025 164.554C172.005 168.234 178.055 171.784 184.195 175.164C184.635 175.424 185.075 175.664 185.525 175.904Z" fill="white"/>
<path d="M17.8152 67.8633C14.9252 71.4133 12.1852 75.1033 9.84521 79.0433C12.7852 75.5833 16.0652 72.4533 19.4752 69.4733C18.9152 68.9333 18.3652 68.3933 17.8152 67.8633Z" fill="white"/>
<path d="M27.9049 75.1836C25.3349 77.6636 23.3449 80.7836 21.5249 83.8236C22.7949 82.6636 24.0949 81.5436 25.4549 80.5036C26.7849 79.4836 28.1949 78.4136 29.7149 77.6736C29.1149 76.8436 28.5049 76.0136 27.9049 75.1836Z" fill="white"/>
<path d="M76.9051 102.402C74.5251 103.552 72.5051 105.422 70.6751 107.302C68.6551 109.382 66.8751 111.732 65.2951 114.162C64.5851 115.262 63.9151 116.372 63.2451 117.492C66.5451 113.622 70.0951 109.912 74.4751 107.262C75.5951 106.582 76.7951 105.912 78.0651 105.552C77.6751 104.502 77.2951 103.452 76.9051 102.402Z" fill="white"/>
<path d="M83.6852 109.581C87.0252 109.911 89.5952 111.471 89.4352 113.071C89.2752 114.671 86.4452 115.701 83.1052 115.371C79.7652 115.041 77.1952 113.481 77.3552 111.881C77.5252 110.281 80.3552 109.251 83.6852 109.581Z" fill="white"/>
<path d="M73.955 114.581C75.185 114.701 76.0849 115.761 75.9749 116.951C75.8549 118.141 74.7649 119.001 73.5349 118.881C72.3049 118.761 71.405 117.701 71.515 116.511C71.635 115.321 72.725 114.461 73.955 114.581Z" fill="white"/>
<path d="M20.4752 72.8906C22.0852 73.2406 23.2053 74.3706 22.9853 75.4006C22.7553 76.4306 21.2653 76.9906 19.6553 76.6306C18.0453 76.2806 16.9253 75.1506 17.1453 74.1206C17.3753 73.0906 18.8652 72.5406 20.4752 72.8906Z" fill="white"/>
<path d="M73.3052 145.083C73.3152 145.063 73.3552 145.083 73.3352 145.103C73.3252 145.123 73.2952 145.103 73.3052 145.083Z" fill="white"/>
<path d="M198.565 84.8623L198.435 83.8923L184.745 64.3023L183.875 63.8523C183.475 63.6423 182.375 63.1523 180.865 63.1523C179.445 63.1523 178.065 63.5923 176.875 64.4323C175.945 65.0823 175.245 65.8923 174.755 66.7323C172.725 67.0723 170.025 67.7823 167.925 69.2423C165.765 70.7523 164.845 72.7823 164.475 74.4623C159.935 76.7823 148.365 82.8023 138.145 88.8423C132.915 91.9323 128.125 95.2923 124.615 97.7523C122.555 99.1923 120.775 100.442 119.705 101.082L119.445 101.242C119.305 101.342 118.635 101.662 115.895 101.662C115.095 101.662 114.245 101.642 113.355 101.612C112.325 101.582 111.255 101.562 110.155 101.562C105.505 101.562 99.4751 102.042 94.1251 105.782L5.01504 168.062C-5.67496 175.532 2.82503 187.752 11.035 199.572L11.705 200.532C19.395 211.482 25.405 219.232 32.695 219.232C34.925 219.232 37.125 218.492 39.225 217.022L128.335 154.742C134.805 150.222 137.185 143.162 138.935 138.012C139.605 136.032 140.615 133.052 141.315 132.522L142.805 131.492C146.405 129.012 153.095 124.382 159.725 118.962C168.815 111.512 178.255 102.872 181.945 99.4523C182.315 99.5023 182.715 99.5323 183.135 99.5323C184.915 99.5323 186.605 99.0023 188.035 98.0123C190.125 96.5523 191.715 94.2623 192.735 92.4723C193.775 92.2823 194.755 91.8723 195.635 91.2623C198.175 89.4523 198.805 86.6823 198.565 84.8623Z" fill="white"/>
<path d="M139.015 129.233C142.065 127.103 149.635 122.023 157.175 115.853C168.785 106.343 180.815 95.0132 180.815 95.0132C180.815 95.0132 183.435 96.3132 185.735 94.7132C188.425 92.8332 190.275 88.4032 190.275 88.4032C190.275 88.4032 191.855 88.9832 193.325 87.9632C194.805 86.9332 194.595 85.3832 194.595 85.3832L188.635 76.8632L187.975 75.9132L182.015 67.3932C182.015 67.3932 180.625 66.6732 179.155 67.7032C177.685 68.7332 177.685 70.4232 177.685 70.4232C177.685 70.4232 172.895 70.6432 170.205 72.5232C167.905 74.1332 168.225 77.0332 168.225 77.0332C168.225 77.0332 153.185 84.5832 140.165 92.2832C131.925 97.1532 124.885 102.653 121.725 104.523C117.305 107.613 105.505 102.703 96.405 109.063C87.305 115.423 11.3949 168.473 7.29493 171.343C0.714934 175.943 4.68492 183.433 14.3149 197.293C14.4249 197.453 14.5349 197.603 14.6449 197.763C14.7549 197.923 14.8649 198.073 14.9749 198.233C24.6749 212.043 30.3449 218.343 36.9249 213.743C41.0249 210.873 116.935 157.823 126.035 151.463C135.145 145.093 134.705 132.243 139.015 129.233Z" fill="#514339"/>
<path d="M130.575 105.061C134.615 101.671 139.035 98.6906 143.445 95.8106C148.565 92.4606 153.795 89.2506 159.145 86.2906C161.655 84.9006 164.195 83.5606 166.815 82.3906C163.045 86.1506 158.755 89.4006 154.365 92.4006C149.305 95.8706 143.985 99.0106 138.465 101.701C135.895 102.961 133.275 104.121 130.575 105.061Z" fill="white"/>
<path d="M9.7251 175.904C15.0051 172.004 20.3851 168.234 25.7451 164.444C31.9351 160.064 38.1651 155.734 44.3751 151.384C50.8551 146.854 57.3351 142.314 63.8151 137.784C70.0551 133.424 76.3151 129.074 82.5651 124.714C88.3051 120.704 94.0851 116.744 99.8951 112.844C100.315 112.564 100.735 112.284 101.155 112.004C96.2751 116.334 91.2451 120.484 86.1451 124.564C80.1751 129.354 74.0751 133.994 67.8951 138.504C61.5851 143.114 55.1951 147.614 48.7051 151.984C42.2951 156.304 35.8051 160.504 29.2251 164.554C23.2451 168.234 17.1951 171.784 11.0551 175.164C10.6051 175.424 10.1651 175.664 9.7251 175.904Z" fill="white"/>
<path d="M177.435 67.8633C180.325 71.4133 183.065 75.1033 185.405 79.0433C182.465 75.5833 179.185 72.4533 175.775 69.4733C176.325 68.9333 176.875 68.3933 177.435 67.8633Z" fill="white"/>
<path d="M167.335 75.1836C169.905 77.6636 171.895 80.7836 173.715 83.8236C172.445 82.6636 171.145 81.5436 169.785 80.5036C168.455 79.4836 167.045 78.4136 165.525 77.6736C166.125 76.8436 166.735 76.0136 167.335 75.1836Z" fill="white"/>
<path d="M118.335 102.402C120.715 103.552 122.735 105.422 124.565 107.302C126.585 109.382 128.365 111.732 129.945 114.162C130.655 115.262 131.325 116.372 131.995 117.492C128.695 113.622 125.145 109.912 120.765 107.262C119.645 106.582 118.445 105.912 117.175 105.552C117.565 104.502 117.955 103.452 118.335 102.402Z" fill="white"/>
<path d="M111.555 109.581C108.215 109.911 105.645 111.471 105.805 113.071C105.965 114.671 108.795 115.701 112.135 115.371C115.475 115.041 118.045 113.481 117.885 111.881C117.725 110.281 114.885 109.251 111.555 109.581Z" fill="white"/>
<path d="M121.285 114.581C120.055 114.701 119.155 115.761 119.265 116.951C119.375 118.141 120.475 119.001 121.705 118.881C122.935 118.761 123.835 117.701 123.725 116.511C123.605 115.321 122.515 114.461 121.285 114.581Z" fill="white"/>
<path d="M174.765 72.8906C173.155 73.2406 172.035 74.3706 172.255 75.4006C172.485 76.4306 173.975 76.9906 175.585 76.6306C177.195 76.2806 178.315 75.1506 178.095 74.1206C177.865 73.0906 176.375 72.5406 174.765 72.8906Z" fill="white"/>
<path d="M121.935 145.083C121.925 145.063 121.885 145.083 121.905 145.103C121.915 145.123 121.955 145.103 121.935 145.083Z" fill="white"/>
<path d="M14.9747 52.6107L3.86475 41.1407L7.58475 37.5407C8.99475 36.1807 9.96473 35.3407 10.5047 35.0407C11.3247 34.5807 12.2448 34.4207 13.2448 34.5607C14.2448 34.7107 15.1847 35.2407 16.0747 36.1507C16.7547 36.8507 17.2047 37.5707 17.4147 38.3007C17.6247 39.0307 17.6647 39.7207 17.5347 40.3707C17.4047 41.0307 17.1847 41.5907 16.8647 42.0807C16.4147 42.7307 15.6748 43.5607 14.6248 44.5707L13.1147 46.0307L17.3047 50.3607L14.9747 52.6107ZM8.05475 40.8407L11.2047 44.1007L12.4747 42.8707C13.3847 41.9907 13.9447 41.3307 14.1347 40.9207C14.3247 40.5007 14.3847 40.0807 14.3147 39.6607C14.2447 39.2407 14.0448 38.8507 13.7148 38.5107C13.3148 38.0907 12.8547 37.8707 12.3447 37.8307C11.8347 37.8007 11.3647 37.9307 10.9247 38.2207C10.5947 38.4407 10.0148 38.9507 9.18475 39.7607L8.05475 40.8407Z" fill="#4F453E"/>
<path d="M37.6248 33.7785L29.8447 19.8385L35.7747 16.5285C37.2647 15.6985 38.4147 15.2185 39.2347 15.0885C40.0447 14.9585 40.8347 15.1085 41.6047 15.5185C42.3647 15.9285 42.9748 16.5485 43.4348 17.3785C44.0148 18.4285 44.1947 19.4585 43.9547 20.4885C43.7247 21.5185 43.0447 22.4585 41.9147 23.3185C42.7247 23.3385 43.4447 23.4385 44.0747 23.6485C44.7047 23.8485 45.6647 24.3085 46.9447 25.0185L50.1647 26.7885L46.7947 28.6685L43.0647 26.7685C41.7347 26.0885 40.8648 25.6785 40.4348 25.5485C40.0148 25.4185 39.6247 25.3785 39.2647 25.4385C38.9047 25.4985 38.4047 25.7085 37.7647 26.0685L37.1947 26.3885L40.4447 32.2085L37.6248 33.7785ZM35.9547 24.1685L38.0347 23.0085C39.3847 22.2585 40.1948 21.7285 40.4648 21.4285C40.7348 21.1285 40.8947 20.7785 40.9247 20.3985C40.9547 20.0085 40.8548 19.6085 40.6248 19.1885C40.3648 18.7185 40.0247 18.4085 39.6147 18.2585C39.2047 18.1085 38.7448 18.1285 38.2448 18.2985C37.9948 18.3985 37.3047 18.7585 36.1647 19.3985L33.9648 20.6285L35.9547 24.1685Z" fill="#4F453E"/>
<path d="M65.515 20.9989L61.625 5.50891L73.105 2.62891L73.765 5.24891L65.405 7.34891L66.265 10.7789L74.045 8.82891L74.705 11.4389L66.925 13.3889L67.985 17.6089L76.635 15.4389L77.295 18.0489L65.515 20.9989Z" fill="#4F453E"/>
<path d="M94.4746 15.96L94.8646 0L99.6846 0.119999L102.315 11.08L105.445 0.259998L110.275 0.379997L109.885 16.34L106.895 16.27L107.205 3.7L103.725 16.19L100.625 16.11L97.7746 3.47L97.4646 16.04L94.4746 15.96Z" fill="#4F453E"/>
<path d="M127.445 19.5706L131.545 4.14062L134.665 4.97062L130.565 20.4006L127.445 19.5706Z" fill="#4F453E"/>
<path d="M154.785 12.25L157.635 13.76L153.595 21.41C152.955 22.62 152.575 23.43 152.455 23.83C152.275 24.47 152.315 25.09 152.595 25.68C152.865 26.27 153.405 26.78 154.205 27.2C155.015 27.63 155.715 27.78 156.295 27.67C156.875 27.56 157.345 27.28 157.675 26.84C158.005 26.4 158.475 25.63 159.065 24.51L163.195 16.7L166.045 18.21L162.125 25.63C161.235 27.33 160.525 28.48 159.995 29.1C159.475 29.72 158.875 30.16 158.205 30.42C157.535 30.68 156.785 30.77 155.935 30.69C155.095 30.61 154.105 30.27 152.995 29.68C151.645 28.97 150.705 28.27 150.175 27.59C149.645 26.91 149.305 26.22 149.165 25.5C149.025 24.79 149.035 24.13 149.195 23.51C149.435 22.6 149.975 21.36 150.805 19.78L154.785 12.25Z" fill="#4F453E"/>
<path d="M173.295 42.6711L184.325 31.1211L187.815 34.4511L182.385 44.3311L191.975 38.4311L195.475 41.7711L184.445 53.3211L182.275 51.2511L190.955 42.1611L179.985 49.0611L177.735 46.9211L184.135 35.6511L175.455 44.7411L173.295 42.6711Z" fill="#4F453E"/>
<path d="M89.7447 59.9122C85.4447 66.3622 79.7847 68.1322 75.4147 68.1322C69.8547 68.1322 68.0447 65.5022 67.6747 62.7122C63.7147 67.1122 60.0647 68.1322 56.4147 68.1322C48.3947 68.1322 51.4347 54.5222 68.0147 52.5422C70.9147 47.2222 77.6347 34.4922 77.6347 34.4922H83.7047C83.7047 34.4922 83.1247 35.6222 82.2047 37.3622C84.1447 35.9322 86.6447 34.4922 89.0247 34.4922C93.8747 34.4922 96.1247 39.2722 90.4547 44.8622C89.7047 45.6122 88.8547 46.2622 87.9647 46.8022C92.7147 47.8022 93.8447 53.7722 89.7447 59.9122ZM66.3747 55.4722C57.5747 57.1122 53.9547 64.3422 57.0247 64.3422C59.1447 64.3422 62.2147 62.3022 66.3747 55.4722ZM81.5947 49.4722C77.7747 50.1522 74.7747 52.3022 74.0547 52.8522C73.2747 54.2522 72.6947 55.3722 72.3447 55.9222C72.0347 56.5022 71.6947 57.0522 71.3947 57.5622C69.9647 60.9722 72.0747 63.2922 74.6747 63.2922C77.4747 63.2922 81.3947 60.9722 84.3647 56.5722C87.3547 52.2022 86.2647 48.6222 81.5947 49.4722ZM77.1947 46.8822C78.6647 46.5722 81.8347 45.6922 84.5347 43.7422C88.1147 41.1122 89.8547 37.9422 86.5147 37.9422C83.8547 37.9422 80.8147 40.9422 79.6547 42.2422C78.8647 43.7422 78.0047 45.3422 77.1947 46.8822Z" fill="#4F453E"/>
<path d="M122.215 49.4705C117.205 57.6205 108.605 68.1305 100.175 68.1305C91.8147 68.1305 90.1046 61.6805 94.7846 54.2105C98.6046 48.1405 103.285 45.4805 106.285 45.4805C111.235 45.4805 114.305 50.1905 109.425 56.3005C106.495 59.9505 103.115 61.5505 100.145 60.6305C99.3947 60.4205 98.8147 60.0505 98.3347 59.6105C97.7547 62.3405 98.9446 64.0805 101.885 64.0805C107.755 64.0805 115.085 56.1305 121.635 46.9505C122.185 46.1905 122.495 49.0205 122.215 49.4705ZM99.8347 56.0505C99.7647 56.2205 99.6646 56.3605 99.5646 56.5305C101.235 57.8305 103.145 56.5305 104.755 55.2005C106.935 53.3605 108.785 49.3705 107.045 49.3705C105.265 49.3705 102.055 52.3305 99.8347 56.0505Z" fill="#4F453E"/>
<path d="M141.085 49.4705C136.075 57.6205 127.475 68.1305 119.045 68.1305C110.685 68.1305 108.975 61.6805 113.655 54.2105C117.475 48.1405 122.155 45.4805 125.155 45.4805C130.105 45.4805 133.175 50.1905 128.295 56.3005C125.365 59.9505 121.985 61.5505 119.015 60.6305C118.265 60.4205 117.685 60.0505 117.205 59.6105C116.625 62.3405 117.815 64.0805 120.755 64.0805C126.625 64.0805 133.955 56.1305 140.505 46.9505C141.045 46.1905 141.355 49.0205 141.085 49.4705ZM118.695 56.0505C118.625 56.2205 118.525 56.3605 118.425 56.5305C120.095 57.8305 122.005 56.5305 123.615 55.2005C125.795 53.3605 127.645 49.3705 125.905 49.3705C124.125 49.3705 120.915 52.3305 118.695 56.0505Z" fill="#4F453E"/>
<path d="M135.755 68.1304C133.505 68.1304 132.515 66.4904 134.425 62.9404C135.825 60.3804 137.705 56.6604 139.375 53.8604C141.115 50.9604 139.035 50.7204 138.215 50.3104C136.375 49.3504 133.715 46.3504 136.205 43.2104C138.185 40.7504 141.155 41.2304 142.825 42.3204C144.635 43.4804 142.995 45.7704 140.945 47.9804C141.155 48.2204 141.385 48.4204 141.695 48.5904C144.325 50.0904 147.695 48.3504 145.415 52.7204C144.565 54.3604 144.325 54.5304 142.855 57.2904C142.345 58.2104 141.455 60.0904 141.725 60.3604C141.995 60.6704 142.815 59.9204 143.665 59.1704C146.325 56.8504 149.875 57.9404 149.875 61.3204C149.875 66.2004 145.985 73.6704 133.775 73.6704C132.615 73.6704 84.4048 74.0104 73.7948 81.7204C69.8348 78.9604 56.9048 71.8304 56.9048 71.8304C56.9048 71.8304 129.205 70.8104 134.015 70.8104C143.535 70.8104 148.245 65.2504 148.245 62.6904C148.245 59.9304 145.135 61.5604 142.005 64.5004C139.065 67.3104 137.155 68.1304 135.755 68.1304Z" fill="#4F453E"/>
<path d="M56.9746 71.9609L79.7646 85.3609C79.7646 85.3609 99.4846 73.6709 129.355 73.6709L56.9746 71.9609Z" fill="#514339"/>
<path d="M39.625 188.51L38.545 186.96L39.285 186.44L34.215 179.17L33.475 179.69L32.395 178.14L35.985 175.64C37.025 174.92 38.005 174.58 38.915 174.63C39.835 174.68 40.595 175.15 41.215 176.03C41.975 177.13 42.005 178.18 41.285 179.18C42.695 178.9 43.805 179.34 44.615 180.5C45.285 181.46 45.475 182.43 45.205 183.42C44.935 184.41 44.215 185.31 43.045 186.12L39.625 188.51ZM36.635 177.38L38.635 180.26C39.175 179.88 39.445 179.53 39.445 179.21C39.435 178.89 39.265 178.49 38.925 178C38.635 177.58 38.365 177.29 38.115 177.14C37.875 176.99 37.645 176.93 37.425 176.98C37.215 177.03 36.955 177.16 36.635 177.38ZM39.635 181.68L41.755 184.72C42.105 184.48 42.345 184.26 42.485 184.08C42.625 183.9 42.675 183.66 42.615 183.38C42.565 183.1 42.375 182.73 42.055 182.27C41.735 181.82 41.455 181.52 41.195 181.37C40.935 181.22 40.695 181.18 40.475 181.23C40.255 181.29 39.975 181.44 39.635 181.68Z" fill="white"/>
<path d="M48.5049 182.32L47.4249 180.77L48.0549 180.33L42.9849 173.06L42.3549 173.5L41.2749 171.95L45.1249 169.27C46.0749 168.61 47.0349 168.37 47.9949 168.55C48.9549 168.74 49.7349 169.27 50.3549 170.15C50.6849 170.63 50.8849 171.08 50.9549 171.51C51.0249 171.94 50.9649 172.42 50.7949 172.95L54.1649 176.08L54.5849 175.78L55.6649 177.33L53.3949 178.91L49.2449 175.04L48.4349 175.6L50.5249 178.6L51.1549 178.16L52.2349 179.71L48.5049 182.32ZM45.4049 171.27L47.3849 174.12C47.9849 173.7 48.2849 173.32 48.2849 172.98C48.2849 172.64 48.1049 172.21 47.7449 171.69C47.4349 171.25 47.1249 170.96 46.8049 170.83C46.4949 170.69 46.0249 170.84 45.4049 171.27Z" fill="white"/>
<path d="M56.9849 176.41L55.9049 174.86L56.8049 174.23L51.7349 166.96L50.8349 167.59L49.7549 166.04L56.7549 161.16L59.0549 164.45L57.2049 165.74L55.9849 164L54.1949 165.25L56.1049 168L57.4849 167.04L58.5649 168.59L57.1849 169.55L59.2549 172.52L61.0449 171.27L59.7649 169.44L61.6149 168.15L63.9749 171.53L56.9849 176.41Z" fill="white"/>
<path d="M67.985 168.989L59.6949 161.419L59.145 161.799L58.0649 160.249L61.4149 157.909L62.495 159.459L61.935 159.849L65.8849 163.419L63.775 158.569L63.2549 158.929L62.175 157.379L65.025 155.389L66.1049 156.939L65.525 157.349L69.555 161.019L67.4149 156.029L66.825 156.439L65.745 154.889L68.735 152.809L69.8149 154.359L69.2849 154.729L73.625 165.049L71.795 166.329L67.6049 162.509L69.8149 167.709L67.985 168.989Z" fill="white"/>
<path d="M77.125 162.37L76.045 160.82L77.045 160.12L71.975 152.85L70.975 153.55L69.895 152L74.435 148.84L75.515 150.39L74.445 151.13L79.515 158.4L80.585 157.66L81.665 159.21L77.125 162.37Z" fill="white"/>
<path d="M83.165 158.16L82.0851 156.61L82.735 156.16L77.665 148.89L77.015 149.34L75.9351 147.79L78.915 145.71C80.965 146.98 83.095 148.56 85.325 150.46L85.455 150.37C84.325 148.89 83.6851 148.04 83.5251 147.82L82.1151 145.79L81.505 146.21L80.425 144.66L83.1451 142.77L84.225 144.32L83.665 144.71L89.8751 153.61L87.955 154.95L85.7151 153.43C84.7351 152.77 83.825 152.14 82.985 151.53C82.145 150.92 81.295 150.26 80.425 149.54L80.285 149.64C81.215 150.77 82.0751 151.91 82.8651 153.06L84.2751 155.09L84.8351 154.7L85.915 156.25L83.165 158.16Z" fill="white"/>
<path d="M94.245 145.54L93.555 146.02L92.475 144.47L95.615 142.28C96.285 143.24 96.755 144.05 97.025 144.72C97.305 145.39 97.435 146.04 97.425 146.66C97.415 147.28 97.265 147.84 96.985 148.34C96.695 148.84 96.285 149.27 95.745 149.65C94.635 150.42 93.445 150.58 92.165 150.11C90.885 149.64 89.655 148.56 88.475 146.86C87.285 145.15 86.615 143.64 86.475 142.33C86.335 141.02 86.735 140.04 87.675 139.39C88.305 138.95 89.055 138.89 89.935 139.19L89.965 139.17L89.425 138.4L91.075 137.25L93.535 140.78L91.885 141.93C91.415 141.29 90.975 140.87 90.565 140.67C90.155 140.47 89.795 140.48 89.485 140.7C89.115 140.96 89.025 141.34 89.225 141.83C89.415 142.33 90.005 143.27 90.975 144.67C91.745 145.78 92.345 146.58 92.765 147.08C93.185 147.58 93.535 147.88 93.795 147.99C94.055 148.1 94.305 148.06 94.555 147.89C95.135 147.48 95.035 146.7 94.245 145.54Z" fill="white"/>
<path d="M141.855 172.909L143.425 174.819C142.595 175.769 141.715 176.349 140.765 176.539C139.815 176.739 138.935 176.559 138.135 175.999C137.085 175.279 136.575 174.219 136.585 172.809C136.595 171.399 137.205 169.819 138.425 168.059C139.545 166.429 140.705 165.349 141.915 164.819C143.125 164.279 144.145 164.309 144.985 164.889C145.565 165.289 145.875 165.929 145.915 166.819L145.945 166.839L146.435 166.119L148.145 167.299L145.725 170.819L144.015 169.639C144.815 168.289 144.935 167.419 144.385 167.039C144.015 166.789 143.615 166.889 143.195 167.359C142.765 167.829 142.115 168.699 141.235 169.979C140.165 171.539 139.515 172.589 139.285 173.149C139.055 173.709 139.135 174.109 139.505 174.369C139.795 174.569 140.125 174.549 140.505 174.299C140.855 174.059 141.315 173.589 141.855 172.909Z" fill="white"/>
<path d="M146.465 181.751C145.365 180.991 144.805 179.891 144.815 178.461C144.815 177.031 145.385 175.491 146.505 173.861C147.625 172.231 148.855 171.161 150.195 170.641C151.525 170.121 152.755 170.251 153.865 171.021C154.975 171.781 155.525 172.881 155.525 174.311C155.525 175.741 154.965 177.271 153.835 178.911C152.705 180.551 151.475 181.621 150.135 182.131C148.795 182.641 147.575 182.521 146.465 181.751ZM147.665 180.011C147.905 180.181 148.155 180.211 148.395 180.111C148.635 180.011 148.955 179.731 149.355 179.261C149.755 178.791 150.315 178.031 151.035 176.991C151.755 175.951 152.265 175.161 152.555 174.621C152.855 174.081 153.005 173.681 153.015 173.421C153.025 173.161 152.905 172.941 152.665 172.781C152.425 172.621 152.185 172.581 151.935 172.681C151.685 172.781 151.365 173.061 150.975 173.531C150.585 174.001 150.025 174.761 149.305 175.801C148.585 176.841 148.075 177.631 147.775 178.171C147.475 178.711 147.325 179.111 147.315 179.371C147.315 179.631 147.425 179.851 147.665 180.011Z" fill="white"/>
<path d="M151.625 185.058L153.224 182.738L155.615 184.388L154.015 186.708L151.625 185.058Z" fill="white"/>
<path d="M13.1548 141.773V139.253H14.5048V128.833C14.1148 128.993 13.6648 129.123 13.1548 129.193V126.743C14.4748 126.473 15.6348 125.803 16.6448 124.723H18.0148V139.243H19.3248V141.763H13.1548V141.773Z" fill="#514339"/>
<path d="M23.4848 138.033L26.6348 137.783C26.6548 138.463 26.7348 138.963 26.8748 139.273C27.0048 139.593 27.2348 139.743 27.5548 139.743C27.9348 139.743 28.1848 139.533 28.3048 139.123C28.4348 138.713 28.4948 137.873 28.4948 136.603V135.023C27.9848 135.403 27.4148 135.593 26.7748 135.593C25.6548 135.593 24.7748 135.143 24.1548 134.253C23.5348 133.363 23.2148 132.093 23.2148 130.453C23.2148 128.503 23.6048 127.053 24.3948 126.123C25.1848 125.193 26.2348 124.723 27.5348 124.723C29.0848 124.723 30.2048 125.323 30.8848 126.523C31.5648 127.723 31.9048 129.753 31.9048 132.593V134.723C31.9048 137.173 31.5748 139.023 30.9048 140.253C30.2348 141.483 29.1248 142.103 27.5548 142.103C26.4148 142.103 25.4748 141.743 24.7348 141.023C24.0048 140.313 23.5848 139.313 23.4848 138.033ZM28.5048 132.683V129.183C28.5048 128.403 28.4348 127.853 28.3048 127.543C28.1748 127.233 27.9348 127.073 27.5948 127.073C27.2048 127.073 26.9448 127.283 26.8248 127.693C26.7048 128.103 26.6348 128.883 26.6348 130.023C26.6348 131.313 26.7048 132.163 26.8548 132.573C26.9948 132.983 27.2648 133.193 27.6448 133.193C27.9448 133.183 28.2348 133.023 28.5048 132.683Z" fill="#514339"/>
<path d="M171.795 132.772C172.705 133.192 173.365 133.752 173.785 134.442C174.205 135.132 174.415 136.042 174.415 137.172C174.415 138.682 174.035 139.882 173.275 140.782C172.515 141.682 171.395 142.122 169.925 142.122C168.475 142.122 167.355 141.682 166.575 140.802C165.795 139.922 165.405 138.732 165.405 137.222C165.405 136.052 165.615 135.132 166.025 134.442C166.435 133.752 167.095 133.202 167.985 132.772C166.425 132.062 165.645 130.832 165.645 129.082C165.645 127.782 166.035 126.742 166.825 125.942C167.615 125.142 168.645 124.742 169.915 124.742C171.175 124.742 172.195 125.142 172.985 125.952C173.775 126.752 174.175 127.802 174.175 129.092C174.175 130.842 173.375 132.062 171.795 132.772ZM171.145 129.502C171.145 128.562 171.045 127.902 170.855 127.512C170.665 127.122 170.335 126.932 169.865 126.932C169.415 126.932 169.105 127.132 168.925 127.532C168.745 127.932 168.665 128.612 168.665 129.572C168.665 130.362 168.755 130.932 168.935 131.282C169.115 131.632 169.425 131.802 169.865 131.802C170.325 131.802 170.655 131.622 170.855 131.252C171.055 130.882 171.145 130.312 171.145 129.502ZM171.125 136.762C171.125 135.682 171.025 134.912 170.835 134.452C170.645 133.992 170.325 133.762 169.895 133.762C169.445 133.762 169.135 133.992 168.965 134.452C168.785 134.912 168.705 135.682 168.705 136.762C168.705 137.962 168.785 138.782 168.935 139.232C169.095 139.682 169.415 139.902 169.915 139.902C170.385 139.902 170.705 139.662 170.875 139.182C171.035 138.702 171.125 137.892 171.125 136.762Z" fill="#514339"/>
<path d="M185.345 128.812L182.195 129.062C182.175 128.382 182.105 127.882 181.975 127.572C181.845 127.252 181.605 127.102 181.275 127.102C180.935 127.102 180.695 127.282 180.565 127.632C180.425 127.982 180.355 128.592 180.355 129.452V131.832C180.855 131.452 181.425 131.262 182.065 131.262C183.185 131.262 184.065 131.712 184.695 132.612C185.325 133.512 185.635 134.772 185.635 136.402C185.635 138.252 185.265 139.672 184.515 140.662C183.765 141.652 182.705 142.142 181.305 142.142C179.975 142.142 178.995 141.752 178.365 140.972C177.735 140.192 177.345 139.182 177.185 137.942C177.025 136.702 176.945 135.012 176.945 132.892C176.945 129.792 177.285 127.662 177.975 126.502C178.655 125.342 179.755 124.762 181.265 124.762C182.415 124.762 183.355 125.122 184.095 125.842C184.835 126.532 185.245 127.532 185.345 128.812ZM180.345 134.172V137.792C180.345 138.522 180.405 139.042 180.525 139.342C180.645 139.642 180.895 139.792 181.255 139.792C181.615 139.792 181.865 139.592 181.995 139.202C182.125 138.812 182.195 138.022 182.195 136.832C182.195 135.532 182.125 134.682 181.975 134.282C181.835 133.872 181.575 133.672 181.205 133.672C180.875 133.662 180.595 133.832 180.345 134.172Z" fill="#514339"/>
<path d="M88.5649 212.17V209.97H89.865V199.63H88.5649V197.43H94.995V199.63H93.375V209.97H95.8549V205.6H98.4749V212.17H88.5649Z" fill="#514339"/>
<path d="M99.085 212.17V209.97H100.065L101.655 199.63H100.715V197.43H108.855V199.63H107.855L109.545 209.97H110.465V212.17H105.425V209.97H106.345L105.985 207.22H103.565L103.225 209.97H104.135V212.17H99.085ZM103.835 205.38H105.735L104.975 199.25H104.575L103.835 205.38Z" fill="#514339"/>
</svg>
